<svg xmlns="http://www.w3.org/2000/svg" xmlns:xlink="http://www.w3.org/1999/xlink" width="250" zoomAndPan="magnify" viewBox="0 0 187.5 187.499992" height="250" preserveAspectRatio="xMidYMid meet" version="1.0"><defs><clipPath id="791199c740"><path d="M 3.890625 3.890625 L 183.890625 3.890625 L 183.890625 183.890625 L 3.890625 183.890625 Z M 3.890625 3.890625 " clip-rule="nonzero"/></clipPath></defs><g clip-path="url(#791199c740)"><path fill="#000000" d="M 93.890625 3.890625 C 44.183594 3.890625 3.890625 44.183594 3.890625 93.890625 C 3.890625 143.597656 44.183594 183.890625 93.890625 183.890625 C 143.597656 183.890625 183.890625 143.597656 183.890625 93.890625 C 183.890625 44.183594 143.597656 3.890625 93.890625 3.890625 Z M 129.890625 102.890625 L 79.617188 102.890625 L 93.890625 117.164062 C 97.402344 120.675781 97.402344 126.382812 93.890625 129.890625 C 90.382812 133.402344 84.675781 133.402344 81.164062 129.890625 L 51.527344 100.253906 C 48.007812 96.734375 48.007812 91.039062 51.527344 87.527344 L 81.164062 57.890625 C 84.675781 54.382812 90.382812 54.382812 93.890625 57.890625 C 97.402344 61.402344 97.402344 67.109375 93.890625 70.617188 L 79.617188 84.890625 L 129.890625 84.890625 C 134.859375 84.890625 138.890625 88.921875 138.890625 93.890625 C 138.890625 98.859375 134.859375 102.890625 129.890625 102.890625 Z M 129.890625 102.890625 " fill-opacity="1" fill-rule="nonzero"/></g></svg>