<svg xmlns="http://www.w3.org/2000/svg" xmlns:xlink="http://www.w3.org/1999/xlink" width="250" zoomAndPan="magnify" viewBox="0 0 187.5 187.499992" height="250" preserveAspectRatio="xMidYMid meet" version="1.0"><defs><clipPath id="9cadd590ac"><path d="M 3.804688 3.804688 L 183.804688 3.804688 L 183.804688 183.804688 L 3.804688 183.804688 Z M 3.804688 3.804688 " clip-rule="nonzero"/></clipPath></defs><g clip-path="url(#9cadd590ac)"><path fill="#000000" d="M 93.804688 183.804688 C 143.507812 183.804688 183.804688 143.507812 183.804688 93.804688 C 183.804688 44.097656 143.507812 3.804688 93.804688 3.804688 C 44.097656 3.804688 3.804688 44.097656 3.804688 93.804688 C 3.804688 143.507812 44.097656 183.804688 93.804688 183.804688 Z M 52.925781 55.515625 L 93.804688 88.214844 L 134.679688 55.515625 L 135.859375 54.53125 L 51.746094 54.53125 Z M 140.234375 62.246094 L 141.804688 60.9375 L 141.804688 128.710938 C 141.804688 131.121094 139.847656 133.074219 137.4375 133.074219 L 50.167969 133.074219 C 47.757812 133.074219 45.804688 131.121094 45.804688 128.710938 L 45.804688 60.9375 L 47.375 62.246094 L 47.441406 62.300781 L 91.078125 97.210938 C 92.671875 98.484375 94.933594 98.484375 96.527344 97.210938 L 140.164062 62.300781 Z M 140.234375 62.246094 " fill-opacity="1" fill-rule="evenodd"/></g></svg>