<?xml version="1.0" encoding="UTF-8"?>
<!DOCTYPE svg PUBLIC "-//W3C//DTD SVG 1.1//EN" "http://www.w3.org/Graphics/SVG/1.1/DTD/svg11.dtd">
<!-- Creator: CorelDRAW X8 -->
<svg xmlns="http://www.w3.org/2000/svg" xml:space="preserve" width="210mm" height="297mm" version="1.1" style="shape-rendering:geometricPrecision; text-rendering:geometricPrecision; image-rendering:optimizeQuality; fill-rule:evenodd; clip-rule:evenodd"
viewBox="0 0 21000 29700"
 xmlns:xlink="http://www.w3.org/1999/xlink">
 <defs>
  <style type="text/css">
   <![CDATA[
    .fil0 {fill:#FEFEFE}
   ]]>
  </style>
 </defs>
 <g id="Layer_x0020_1">
  <metadata id="CorelCorpID_0Corel-Layer"/>
  <path class="fil0" d="M18096 18599l0 -1541 -15759 0 0 1541 15759 0zm-1367 -1237l719 0 0 178 -508 0 0 205 466 0 0 165 -466 0 0 235 518 0 0 178 -729 0 0 -961zm-377 323c-14,-96 -105,-168 -210,-168 -190,0 -261,161 -261,329 0,161 71,322 261,322 129,0 202,-89 218,-215l205 0c-22,239 -188,393 -423,393 -297,0 -472,-222 -472,-500 0,-285 175,-507 472,-507 211,0 389,124 414,346l-204 0zm-1058 -323l212 0 0 961 -212 0 0 -961zm-421 961l-238 0 -313 -961 219 0 213 675 3 0 217 -675 218 0 -319 961zm-1228 -527l232 0c94,0 145,-40 145,-137 0,-93 -51,-133 -145,-133l-232 0 0 270zm-211 -434l518 0c173,0 281,120 281,265 0,113 -45,198 -152,241l0 3c104,27 134,127 140,224 4,61 3,174 41,228l-212 0c-25,-61 -22,-154 -33,-230 -15,-101 -54,-146 -160,-146l-212 0 0 376 -211 0 0 -961zm-892 0l718 0 0 178 -507 0 0 205 466 0 0 165 -466 0 0 235 518 0 0 178 -729 0 0 -961zm-750 642c0,128 100,177 212,177 75,0 188,-21 188,-119 0,-104 -144,-121 -286,-159 -142,-38 -286,-93 -286,-273 0,-197 186,-291 359,-291 201,0 385,87 385,310l-205 0c-6,-116 -89,-146 -189,-146 -68,0 -146,28 -146,109 0,74 46,84 287,146 70,17 285,62 285,279 0,177 -138,309 -399,309 -213,0 -412,-105 -410,-342l205 0zm-894 0c0,128 100,177 213,177 74,0 187,-21 187,-119 0,-104 -144,-121 -286,-159 -142,-38 -286,-93 -286,-273 0,-197 186,-291 360,-291 200,0 384,87 384,310l-204 0c-7,-116 -89,-146 -190,-146 -68,0 -145,28 -145,109 0,74 45,84 286,146 70,17 286,62 286,279 0,177 -139,309 -400,309 -213,0 -412,-105 -409,-342l204 0zm-773 -464l-288 0 0 -178 787 0 0 178 -288 0 0 783 -211 0 0 -783zm-1106 -178l719 0 0 178 -507 0 0 205 465 0 0 165 -465 0 0 235 518 0 0 178 -730 0 0 -961zm-1017 0l211 0 0 369 389 0 0 -369 211 0 0 961 -211 0 0 -415 -389 0 0 415 -211 0 0 -961zm-347 852c-75,95 -172,132 -264,132 -298,0 -472,-222 -472,-500 0,-285 174,-507 472,-507 196,0 382,121 405,339l-202 0c-24,-106 -103,-161 -203,-161 -190,0 -261,161 -261,329 0,161 71,322 261,322 137,0 216,-74 229,-207l-213 0 0 -158 404 0 0 520 -135 0 -21 -109zm-1112 -852l211 0 0 961 -211 0 0 -961zm-630 178l-288 0 0 -178 787 0 0 178 -288 0 0 783 -211 0 0 -783zm-962 464c0,128 99,177 212,177 75,0 187,-21 187,-119 0,-104 -143,-121 -284,-159 -143,-38 -287,-93 -287,-273 0,-197 186,-291 359,-291 201,0 384,87 384,310l-204 0c-7,-116 -88,-146 -189,-146 -68,0 -146,28 -146,109 0,74 46,84 287,146 70,17 285,62 285,279 0,177 -139,309 -399,309 -213,0 -412,-105 -410,-342l205 0zm-844 -53l249 0 -121 -352 -3 0 -125 352zm20 -589l217 0 359 961 -219 0 -73 -214 -359 0 -76 214 -214 0 365 -961zm-1080 0l675 0 0 178 -464 0 0 221 403 0 0 165 -403 0 0 397 -211 0 0 -961z"/>
  <path class="fil0" d="M16122 14259c177,51 394,43 556,-20 90,-8 163,41 195,114 3,6 5,11 6,16 -6,0 -12,0 -18,1l-3 0 -4 1c-182,71 -436,70 -616,-8 -51,-28 -89,-63 -116,-104zm-1584 1362c-515,-438 -569,-1245 -598,-1864 59,30 113,69 159,120 26,569 68,1277 439,1744zm-1653 -535c200,28 474,-62 493,135 -59,-4 -120,1 -165,2 -78,1 -184,1 -251,-45 -22,-16 -38,-35 -51,-59l-1 -3 -2 -3c-9,-9 -16,-18 -23,-27zm-1603 856c-8,-2 -16,-5 -24,-8 -46,-32 -79,-70 -107,-110l23 -14c13,10 26,21 37,34 27,29 49,64 71,98zm-1437 -237c-174,-148 -314,-343 -332,-574 -16,-163 -15,-318 42,-465 237,-81 530,83 743,-96 482,-448 426,-1142 329,-1754 82,-65 245,58 318,-65 164,-326 -268,-563 -72,-848 188,49 359,155 572,139l49 -49c-30,-547 244,-1142 81,-1608 40,12 81,27 112,51 26,48 47,98 62,150 92,310 -2,702 -52,1015 -29,178 -52,359 -44,539l-34 34c-200,11 -367,-90 -554,-140l-17 -4 -10 14c-205,299 226,541 71,851 -63,103 -218,-17 -312,57l-11 9 2 15c92,586 156,1287 -322,1731 -200,169 -496,11 -734,92l-11 3 -4 11c-60,153 -59,316 -43,477 12,155 77,295 171,415zm1398 -5544c-80,-27 -147,-70 -162,-168 58,-195 302,-293 515,-317 334,-48 660,58 930,198 171,-90 318,-302 538,-220 62,19 109,71 155,121 -141,-34 -254,42 -366,127 -46,35 -92,72 -143,100 -285,-146 -609,-241 -932,-195 -203,24 -472,119 -535,335l-2 6 1 5c0,3 1,6 1,8zm2153 -276c29,-1 62,-11 100,-34 286,-130 637,-407 955,-170 21,21 43,42 67,64 -289,-102 -585,120 -847,239l-1 1 -2 1c-124,76 -183,-5 -264,-92l-8 -9zm524 2003c96,18 201,-24 282,-61 335,-195 328,-571 345,-921 220,-57 447,359 595,1 197,-432 132,-873 19,-1306 334,-40 595,230 938,222 318,-81 547,-333 914,-243 175,47 366,100 482,227 -94,-42 -196,-70 -290,-95 -139,-34 -266,-23 -400,23 -180,61 -338,171 -524,219 -332,6 -600,-262 -938,-222l-28 4 7 27c114,434 175,867 -17,1289 -85,206 -184,132 -332,47 -60,-33 -128,-68 -198,-68 -17,0 -33,2 -49,6l-18 5 -1 18c-16,332 -5,710 -331,901 -102,47 -239,99 -341,26l-1 -1 -1 -1c-45,-25 -83,-58 -113,-97z"/>
  <path class="fil0" d="M6282 14630c152,48 326,40 458,-59 98,-130 140,-285 124,-456 -16,-147 -130,-253 -155,-376 82,-41 131,57 221,49 57,0 130,-32 130,-97 -7,-46 -25,-90 -48,-131 28,13 54,28 78,44 55,71 115,155 131,245 -2,48 -65,70 -106,70l-1 0 -1 0c-80,7 -133,-94 -229,-46l-17 8 3 19c26,132 140,232 154,373 16,158 -21,309 -116,436 -154,113 -369,97 -532,12 -37,-26 -68,-57 -94,-91zm569 -2841c116,21 263,-10 368,-16 179,-73 310,-179 393,-366 41,-98 86,-242 80,-366 31,-5 65,-5 102,-1 115,119 36,383 -20,513 -77,177 -200,280 -375,352 -135,7 -386,68 -481,-49l-1 -2 -2 -2c-23,-19 -44,-41 -64,-63zm829 -2202c407,221 962,173 1395,44 46,37 63,100 92,156 -410,108 -914,138 -1290,-66l-1 0 -281 -117 -3 0c-476,-64 -1159,-179 -1523,216 -53,47 -47,145 -74,182 -484,-354 -1198,-486 -1740,-189l-7 4 -28 64c-50,-56 -104,-105 -163,-145l25 -57c563,-309 1281,-137 1729,199 57,-33 33,-147 90,-196 352,-383 1012,-276 1502,-209l277 114zm1673 299c100,-18 174,-98 284,-58 18,46 26,94 27,142 -65,26 -126,62 -202,46 -59,-21 -84,-75 -109,-130zm-484 3370c203,5 442,-41 534,142 -151,-29 -340,8 -476,-27 -21,-37 -40,-76 -58,-115zm-3595 2361c-7,-7 -14,-15 -22,-22l2 -1 20 23zm-804 359c-130,-45 -171,-216 -267,-322 5,-2 9,-5 14,-7 61,26 103,100 131,156l2 4 3 3c48,44 82,106 117,166zm-1644 -398c-161,-146 -296,-314 -361,-517 -57,-269 285,-122 408,-236 686,-341 769,-1190 689,-1883 73,-147 204,65 318,-32l98 -114c50,-417 10,-874 -120,-1257 -8,-74 66,-106 123,-73 106,73 211,179 350,131 229,-155 132,-489 197,-718 44,-298 -58,-673 -258,-935 299,236 473,719 419,1086 -62,218 26,555 -184,700 -125,42 -230,-63 -325,-129l-1 -1 0 0c-76,-44 -171,6 -160,97l0 3 1 3c130,386 167,834 120,1238l-92 107c-96,79 -239,-129 -323,38l-3 7 0 7c78,670 6,1520 -675,1859l-3 2 -3 2c-84,79 -297,14 -386,102 -42,42 -41,103 -29,157l0 2 0 1c43,131 113,248 200,353z"/>
  <path class="fil0" d="M17744 10055c0,253 -335,391 -449,595 -82,171 -221,334 -181,538 25,123 130,156 89,311 -245,113 -515,276 -498,602 -124,457 -549,677 -900,880 -40,180 139,302 163,490 146,278 -75,734 259,914 188,82 449,83 636,10 90,-8 163,41 196,114 130,319 -376,473 -262,783 73,115 261,123 179,294 -42,163 -205,98 -335,130 -294,114 -491,595 -874,431 -269,-180 -579,-262 -921,-279 -645,-417 -691,-1331 -723,-2001 -171,-196 -448,-237 -710,-188 -391,186 -637,618 -638,1067 0,147 24,286 114,384 146,286 783,-105 660,376 -188,294 -393,702 -817,668 -293,-25 -432,-294 -644,-458 -318,-41 -286,514 -645,374 -130,-90 -154,-237 -269,-310 -277,178 -620,366 -954,218 -253,-155 -497,-401 -521,-711 -16,-163 -16,-318 41,-465 237,-81 530,83 743,-96 482,-448 426,-1142 330,-1754 81,-65 244,57 318,-65 164,-326 -268,-563 -72,-849 187,50 359,156 571,140l49 -48c-31,-596 296,-1248 27,-1731 -130,-106 -407,-57 -439,-270 57,-195 302,-293 514,-317 335,-48 661,59 930,198 171,-90 318,-302 538,-220 164,50 220,327 433,197 285,-130 637,-407 955,-170 113,115 301,246 251,466 -65,49 -155,49 -228,73 -441,285 -817,602 -859,1173 -16,196 73,376 220,458 113,82 261,25 367,-24 335,-195 327,-571 344,-922 220,-56 448,361 596,2 196,-432 132,-873 18,-1306 335,-40 595,230 938,222 319,-81 547,-333 914,-243 212,58 448,123 546,319z"/>
  <path class="fil0" d="M6569 13519c-245,163 -441,423 -442,734 24,187 73,375 236,490 171,89 400,106 563,-16 98,-130 139,-285 123,-456 -16,-147 -130,-254 -154,-376 81,-41 130,57 220,49 57,0 130,-32 131,-97 -17,-98 -81,-188 -138,-262 -147,-98 -376,-155 -539,-66zm478 -2667c-163,65 -261,228 -335,391 -90,236 7,473 187,628 105,131 350,66 505,58 180,-73 311,-179 393,-366 65,-155 139,-424 9,-547 -123,-16 -204,16 -294,81 -66,-24 -73,-114 -114,-155 -90,-74 -220,-106 -351,-90zm818 -1109c408,221 963,174 1395,44 82,65 73,212 196,253 146,33 228,-106 367,-56 97,253 -107,530 -100,823 -49,302 130,645 -75,947 -213,432 -630,856 -1111,1010 220,155 252,424 374,629 228,66 596,-81 693,197 -8,228 -213,301 -303,497 -148,596 -402,1215 -925,1590 -597,668 -1665,674 -2464,411 -269,-114 -448,-303 -652,-523l-57 24 -499 554c-179,-17 -211,-237 -334,-351 -32,-66 -81,-147 -154,-172 -286,138 -515,513 -890,357 -285,-196 -570,-433 -676,-760 -57,-269 286,-122 408,-236 686,-341 769,-1190 689,-1884 74,-146 204,66 318,-32l99 -113c49,-417 9,-874 -121,-1257 -8,-74 66,-106 123,-74 106,74 212,180 351,132 229,-155 131,-490 196,-718 58,-392 -136,-914 -471,-1143l25 -57c564,-309 1281,-137 1729,199 58,-33 33,-147 90,-196 352,-383 1013,-275 1502,-210l277 115z"/>
 </g>
</svg>
