<svg xmlns="http://www.w3.org/2000/svg" xmlns:xlink="http://www.w3.org/1999/xlink" width="500" zoomAndPan="magnify" viewBox="0 0 375 374.999991" height="500" preserveAspectRatio="xMidYMid meet" version="1.0"><defs><g/><clipPath id="e5c434fdb5"><path d="M 11.289062 78.285156 L 188.289062 78.285156 L 188.289062 247.035156 L 11.289062 247.035156 Z M 11.289062 78.285156 " clip-rule="nonzero"/></clipPath><clipPath id="79df36d1b9"><path d="M 188.1875 80.859375 L 363.6875 80.859375 L 363.6875 244.359375 L 188.1875 244.359375 Z M 188.1875 80.859375 " clip-rule="nonzero"/></clipPath></defs><g clip-path="url(#e5c434fdb5)"><path fill="#000000" d="M 185.238281 134.691406 C 175.660156 99.382812 146.691406 78.304688 107.738281 78.304688 L 11.289062 78.304688 L 13.191406 82.671875 C 21.367188 101.429688 39.863281 113.558594 60.308594 113.5625 L 86.574219 113.5625 L 86.789062 113.558594 C 87.785156 113.488281 91.476562 113.261719 97.007812 113.261719 C 102.328125 113.261719 107.75 113.472656 113.101562 113.882812 L 113.625 113.921875 C 134.117188 115.539062 162.191406 120.902344 179.539062 137.253906 L 179.761719 137.460938 C 179.851562 137.546875 179.945312 137.628906 180.03125 137.71875 L 188.289062 145.953125 Z M 187.878906 175.382812 L 187.855469 175.71875 C 182.648438 219.710938 151.617188 247.035156 106.882812 247.035156 L 45.347656 247.035156 L 45.347656 163.75 L 48.460938 163.75 C 66.476562 163.75 81.132812 178.421875 81.132812 196.460938 L 81.132812 211.207031 L 108.382812 211.207031 C 121.804688 211.207031 133.109375 206.792969 141.074219 198.441406 C 149.179688 189.945312 153.460938 177.660156 153.460938 162.921875 L 153.460938 162.417969 C 153.460938 151.003906 150.957031 141.167969 146.011719 133.167969 L 141.394531 125.699219 L 149.679688 128.578125 C 159.960938 132.152344 168.300781 136.90625 174.464844 142.722656 C 183.472656 151.214844 187.984375 162.203125 187.878906 175.382812 " fill-opacity="1" fill-rule="nonzero"/></g><g clip-path="url(#79df36d1b9)"><path fill="#000000" d="M 266.851562 80.929688 C 242.996094 80.929688 222.957031 88.851562 208.894531 103.84375 C 195.347656 118.292969 188.183594 138.308594 188.183594 161.734375 L 188.183594 162.167969 C 188.183594 185.664062 195.417969 205.894531 209.101562 220.675781 C 223.386719 236.109375 243.613281 244.269531 267.589844 244.269531 L 323.277344 244.269531 C 326.773438 244.269531 329.605469 241.433594 329.605469 237.9375 L 329.605469 160.757812 C 329.605469 157.261719 326.773438 154.425781 323.277344 154.425781 L 271.90625 154.425781 C 268.277344 154.425781 265.335938 157.371094 265.335938 161.007812 L 265.335938 176.613281 C 265.335938 180.246094 268.277344 183.191406 271.90625 183.191406 L 280.644531 183.191406 L 280.644531 188.910156 C 280.644531 192.40625 277.8125 195.242188 274.316406 195.242188 L 266.300781 195.242188 C 247.4375 195.242188 236.621094 183.425781 236.621094 162.816406 L 236.621094 162.382812 C 236.621094 144.28125 245.679688 132.160156 260.851562 129.953125 C 262.476562 129.808594 264.117188 129.683594 265.726562 129.582031 L 265.933594 129.582031 C 266.019531 129.578125 266.109375 129.574219 266.195312 129.574219 L 266.324219 129.574219 L 270.1875 129.464844 L 309.566406 129.464844 C 329.59375 129.464844 347.722656 117.578125 355.730469 99.195312 L 363.6875 80.929688 L 266.851562 80.929688 " fill-opacity="1" fill-rule="nonzero"/></g><g fill="#000000" fill-opacity="1"><g transform="translate(42.452182, 286.749067)"><g><path d="M 26.296875 -14.828125 C 26.296875 -11.253906 25.800781 -8.378906 24.8125 -6.203125 C 23.832031 -4.035156 22.347656 -2.457031 20.359375 -1.46875 C 18.367188 -0.488281 15.578125 0 11.984375 0 L 2.9375 0 L 2.9375 -29.65625 L 11.890625 -29.65625 C 15.390625 -29.65625 18.171875 -29.148438 20.234375 -28.140625 C 22.304688 -27.128906 23.832031 -25.546875 24.8125 -23.390625 C 25.800781 -21.242188 26.296875 -18.390625 26.296875 -14.828125 Z M 20.0625 -14.875 C 20.0625 -17.457031 19.804688 -19.375 19.296875 -20.625 C 18.785156 -21.875 17.921875 -22.769531 16.703125 -23.3125 C 15.492188 -23.851562 13.695312 -24.125 11.3125 -24.125 L 9 -24.125 L 9 -5.53125 L 11.3125 -5.53125 C 13.695312 -5.53125 15.492188 -5.800781 16.703125 -6.34375 C 17.910156 -6.894531 18.769531 -7.8125 19.28125 -9.09375 C 19.800781 -10.382812 20.0625 -12.3125 20.0625 -14.875 Z M 20.0625 -14.875 "/></g></g></g><g fill="#000000" fill-opacity="1"><g transform="translate(70.582317, 286.749067)"><g><path d="M 16.375 0 L 16.375 -2.34375 C 14.1875 -0.332031 11.84375 0.671875 9.34375 0.671875 C 6.851562 0.671875 4.972656 0.0195312 3.703125 -1.28125 C 2.429688 -2.59375 1.796875 -4.273438 1.796875 -6.328125 C 1.796875 -7.921875 2.117188 -9.238281 2.765625 -10.28125 C 3.421875 -11.320312 4.390625 -12.140625 5.671875 -12.734375 C 6.953125 -13.328125 8.789062 -13.75 11.1875 -14 L 15.921875 -14.4375 L 15.921875 -15.453125 C 15.921875 -16.710938 15.539062 -17.570312 14.78125 -18.03125 C 14.03125 -18.5 12.925781 -18.734375 11.46875 -18.734375 C 10.269531 -18.734375 9.238281 -18.53125 8.375 -18.125 C 7.507812 -17.726562 6.867188 -17.160156 6.453125 -16.421875 L 2.140625 -19.1875 C 2.898438 -20.457031 4.085938 -21.429688 5.703125 -22.109375 C 7.316406 -22.785156 9.265625 -23.125 11.546875 -23.125 C 15.046875 -23.125 17.570312 -22.507812 19.125 -21.28125 C 20.675781 -20.0625 21.453125 -18.0625 21.453125 -15.28125 L 21.453125 0 Z M 15.921875 -10.4375 L 13.109375 -10.1875 C 11.128906 -10.007812 9.695312 -9.628906 8.8125 -9.046875 C 7.9375 -8.460938 7.5 -7.582031 7.5 -6.40625 C 7.5 -5.375 7.785156 -4.671875 8.359375 -4.296875 C 8.929688 -3.921875 9.6875 -3.734375 10.625 -3.734375 C 11.300781 -3.734375 12.117188 -3.941406 13.078125 -4.359375 C 14.046875 -4.785156 14.992188 -5.382812 15.921875 -6.15625 Z M 15.921875 -10.4375 "/></g></g></g><g fill="#000000" fill-opacity="1"><g transform="translate(94.984621, 286.749067)"><g><path d="M 17.59375 0 L 17.59375 -12.390625 C 17.59375 -14.734375 17.378906 -16.296875 16.953125 -17.078125 C 16.535156 -17.867188 15.742188 -18.265625 14.578125 -18.265625 C 12.929688 -18.265625 10.953125 -17.175781 8.640625 -15 L 8.640625 0 L 3.109375 0 L 3.109375 -22.484375 L 8.640625 -22.484375 L 8.640625 -19.5625 C 9.804688 -20.738281 11.050781 -21.625 12.375 -22.21875 C 13.707031 -22.820312 15.007812 -23.125 16.28125 -23.125 C 18.582031 -23.125 20.296875 -22.492188 21.421875 -21.234375 C 22.554688 -19.984375 23.125 -17.90625 23.125 -15 L 23.125 0 Z M 17.59375 0 "/></g></g></g><g fill="#000000" fill-opacity="1"><g transform="translate(121.058021, 286.749067)"><g><path d="M 8.953125 -28.609375 C 8.953125 -27.566406 8.695312 -26.835938 8.1875 -26.421875 C 7.675781 -26.003906 6.890625 -25.796875 5.828125 -25.796875 C 4.660156 -25.796875 3.863281 -26.039062 3.4375 -26.53125 C 3.019531 -27.019531 2.8125 -27.710938 2.8125 -28.609375 C 2.8125 -29.609375 3.035156 -30.328125 3.484375 -30.765625 C 3.941406 -31.203125 4.722656 -31.421875 5.828125 -31.421875 C 6.941406 -31.421875 7.738281 -31.207031 8.21875 -30.78125 C 8.707031 -30.363281 8.953125 -29.640625 8.953125 -28.609375 Z M 3.109375 0 L 3.109375 -22.484375 L 8.640625 -22.484375 L 8.640625 0 Z M 3.109375 0 "/></g></g></g><g fill="#000000" fill-opacity="1"><g transform="translate(132.819974, 286.749067)"><g><path d="M 7.671875 -9.796875 C 7.773438 -7.796875 8.257812 -6.359375 9.125 -5.484375 C 10 -4.609375 11.375 -4.171875 13.25 -4.171875 C 14.332031 -4.171875 15.285156 -4.304688 16.109375 -4.578125 C 16.929688 -4.859375 17.648438 -5.382812 18.265625 -6.15625 L 22.375 -3.21875 C 21.476562 -1.914062 20.3125 -0.941406 18.875 -0.296875 C 17.4375 0.347656 15.472656 0.671875 12.984375 0.671875 C 9.285156 0.671875 6.523438 -0.300781 4.703125 -2.25 C 2.878906 -4.195312 1.96875 -7.132812 1.96875 -11.0625 C 1.96875 -19.101562 5.566406 -23.125 12.765625 -23.125 C 15.972656 -23.125 18.414062 -22.21875 20.09375 -20.40625 C 21.769531 -18.601562 22.609375 -15.972656 22.609375 -12.515625 L 22.609375 -9.796875 Z M 17.125 -13.609375 C 17.125 -17.023438 15.628906 -18.734375 12.640625 -18.734375 C 11.660156 -18.734375 10.851562 -18.5625 10.21875 -18.21875 C 9.59375 -17.882812 9.085938 -17.382812 8.703125 -16.71875 C 8.328125 -16.0625 8.035156 -15.023438 7.828125 -13.609375 Z M 17.125 -13.609375 "/></g></g></g><g fill="#000000" fill-opacity="1"><g transform="translate(157.307974, 286.749067)"><g><path d="M 3.109375 0 L 3.109375 -31.90625 L 8.640625 -31.90625 L 8.640625 0 Z M 3.109375 0 "/></g></g></g><g fill="#000000" fill-opacity="1"><g transform="translate(169.069927, 286.749067)"><g/></g></g><g fill="#000000" fill-opacity="1"><g transform="translate(179.610694, 286.749067)"><g><path d="M 22.828125 -21.328125 C 22.066406 -22.554688 21.144531 -23.460938 20.0625 -24.046875 C 18.976562 -24.628906 17.613281 -24.921875 15.96875 -24.921875 C 13.269531 -24.921875 11.316406 -24.050781 10.109375 -22.3125 C 8.898438 -20.582031 8.296875 -18.003906 8.296875 -14.578125 C 8.296875 -11.171875 8.890625 -8.675781 10.078125 -7.09375 C 11.273438 -5.519531 13.195312 -4.734375 15.84375 -4.734375 C 17.84375 -4.734375 19.679688 -5.148438 21.359375 -5.984375 L 21.359375 -10.59375 L 15.578125 -10.59375 L 15.578125 -15.921875 L 27.4375 -15.921875 L 27.4375 -2.8125 C 26.0625 -1.78125 24.351562 -0.945312 22.3125 -0.3125 C 20.28125 0.3125 18.1875 0.625 16.03125 0.625 C 11.40625 0.625 7.921875 -0.582031 5.578125 -3 C 3.234375 -5.414062 2.0625 -9.273438 2.0625 -14.578125 C 2.0625 -25.046875 6.664062 -30.28125 15.875 -30.28125 C 18.5625 -30.28125 20.90625 -29.828125 22.90625 -28.921875 C 24.90625 -28.023438 26.425781 -26.707031 27.46875 -24.96875 Z M 22.828125 -21.328125 "/></g></g></g><g fill="#000000" fill-opacity="1"><g transform="translate(209.926111, 286.749067)"><g><path d="M 16.375 0 L 16.375 -2.34375 C 14.1875 -0.332031 11.84375 0.671875 9.34375 0.671875 C 6.851562 0.671875 4.972656 0.0195312 3.703125 -1.28125 C 2.429688 -2.59375 1.796875 -4.273438 1.796875 -6.328125 C 1.796875 -7.921875 2.117188 -9.238281 2.765625 -10.28125 C 3.421875 -11.320312 4.390625 -12.140625 5.671875 -12.734375 C 6.953125 -13.328125 8.789062 -13.75 11.1875 -14 L 15.921875 -14.4375 L 15.921875 -15.453125 C 15.921875 -16.710938 15.539062 -17.570312 14.78125 -18.03125 C 14.03125 -18.5 12.925781 -18.734375 11.46875 -18.734375 C 10.269531 -18.734375 9.238281 -18.53125 8.375 -18.125 C 7.507812 -17.726562 6.867188 -17.160156 6.453125 -16.421875 L 2.140625 -19.1875 C 2.898438 -20.457031 4.085938 -21.429688 5.703125 -22.109375 C 7.316406 -22.785156 9.265625 -23.125 11.546875 -23.125 C 15.046875 -23.125 17.570312 -22.507812 19.125 -21.28125 C 20.675781 -20.0625 21.453125 -18.0625 21.453125 -15.28125 L 21.453125 0 Z M 15.921875 -10.4375 L 13.109375 -10.1875 C 11.128906 -10.007812 9.695312 -9.628906 8.8125 -9.046875 C 7.9375 -8.460938 7.5 -7.582031 7.5 -6.40625 C 7.5 -5.375 7.785156 -4.671875 8.359375 -4.296875 C 8.929688 -3.921875 9.6875 -3.734375 10.625 -3.734375 C 11.300781 -3.734375 12.117188 -3.941406 13.078125 -4.359375 C 14.046875 -4.785156 14.992188 -5.382812 15.921875 -6.15625 Z M 15.921875 -10.4375 "/></g></g></g><g fill="#000000" fill-opacity="1"><g transform="translate(234.328414, 286.749067)"><g><path d="M 3.109375 0 L 3.109375 -31.90625 L 8.640625 -31.90625 L 8.640625 0 Z M 3.109375 0 "/></g></g></g><g fill="#000000" fill-opacity="1"><g transform="translate(246.090367, 286.749067)"><g><path d="M 3.109375 0 L 3.109375 -31.90625 L 8.640625 -31.90625 L 8.640625 0 Z M 3.109375 0 "/></g></g></g><g fill="#000000" fill-opacity="1"><g transform="translate(257.852321, 286.749067)"><g><path d="M 7.671875 -9.796875 C 7.773438 -7.796875 8.257812 -6.359375 9.125 -5.484375 C 10 -4.609375 11.375 -4.171875 13.25 -4.171875 C 14.332031 -4.171875 15.285156 -4.304688 16.109375 -4.578125 C 16.929688 -4.859375 17.648438 -5.382812 18.265625 -6.15625 L 22.375 -3.21875 C 21.476562 -1.914062 20.3125 -0.941406 18.875 -0.296875 C 17.4375 0.347656 15.472656 0.671875 12.984375 0.671875 C 9.285156 0.671875 6.523438 -0.300781 4.703125 -2.25 C 2.878906 -4.195312 1.96875 -7.132812 1.96875 -11.0625 C 1.96875 -19.101562 5.566406 -23.125 12.765625 -23.125 C 15.972656 -23.125 18.414062 -22.21875 20.09375 -20.40625 C 21.769531 -18.601562 22.609375 -15.972656 22.609375 -12.515625 L 22.609375 -9.796875 Z M 17.125 -13.609375 C 17.125 -17.023438 15.628906 -18.734375 12.640625 -18.734375 C 11.660156 -18.734375 10.851562 -18.5625 10.21875 -18.21875 C 9.59375 -17.882812 9.085938 -17.382812 8.703125 -16.71875 C 8.328125 -16.0625 8.035156 -15.023438 7.828125 -13.609375 Z M 17.125 -13.609375 "/></g></g></g><g fill="#000000" fill-opacity="1"><g transform="translate(282.340321, 286.749067)"><g><path d="M 22.953125 -0.421875 C 22.953125 2.578125 22.03125 4.804688 20.1875 6.265625 C 18.34375 7.734375 15.382812 8.46875 11.3125 8.46875 C 7.957031 8.46875 5.019531 7.820312 2.5 6.53125 L 4.140625 2.015625 C 6.460938 3.097656 8.851562 3.640625 11.3125 3.640625 C 13.601562 3.640625 15.191406 3.3125 16.078125 2.65625 C 16.972656 2 17.421875 0.890625 17.421875 -0.671875 L 17.421875 -2.5 C 15.597656 -0.832031 13.390625 0 10.796875 0 C 8.054688 0 5.898438 -0.984375 4.328125 -2.953125 C 2.753906 -4.929688 1.96875 -7.769531 1.96875 -11.46875 C 1.96875 -13.78125 2.332031 -15.816406 3.0625 -17.578125 C 3.800781 -19.347656 4.878906 -20.710938 6.296875 -21.671875 C 7.722656 -22.640625 9.445312 -23.125 11.46875 -23.125 C 12.65625 -23.125 13.835938 -22.863281 15.015625 -22.34375 C 16.203125 -21.820312 17.195312 -21.160156 18 -20.359375 L 18.734375 -22.484375 L 22.953125 -22.484375 Z M 17.421875 -16.25 C 15.910156 -17.59375 14.257812 -18.265625 12.46875 -18.265625 C 11.125 -18.265625 9.988281 -17.648438 9.0625 -16.421875 C 8.132812 -15.191406 7.671875 -13.566406 7.671875 -11.546875 C 7.671875 -9.265625 8.082031 -7.578125 8.90625 -6.484375 C 9.726562 -5.398438 10.796875 -4.859375 12.109375 -4.859375 C 13.941406 -4.859375 15.710938 -5.597656 17.421875 -7.078125 Z M 17.421875 -16.25 "/></g></g></g><g fill="#000000" fill-opacity="1"><g transform="translate(308.413721, 286.749067)"><g><path d="M 23.53125 -11.1875 C 23.53125 -7.445312 22.664062 -4.535156 20.9375 -2.453125 C 19.207031 -0.367188 16.484375 0.671875 12.765625 0.671875 C 5.566406 0.671875 1.96875 -3.28125 1.96875 -11.1875 C 1.96875 -14.988281 2.832031 -17.925781 4.5625 -20 C 6.289062 -22.082031 9.023438 -23.125 12.765625 -23.125 C 16.484375 -23.125 19.207031 -22.082031 20.9375 -20 C 22.664062 -17.925781 23.53125 -14.988281 23.53125 -11.1875 Z M 17.8125 -11.1875 C 17.8125 -13.65625 17.425781 -15.457031 16.65625 -16.59375 C 15.882812 -17.726562 14.585938 -18.296875 12.765625 -18.296875 C 10.972656 -18.296875 9.675781 -17.710938 8.875 -16.546875 C 8.070312 -15.390625 7.671875 -13.601562 7.671875 -11.1875 C 7.671875 -8.789062 8.066406 -7.019531 8.859375 -5.875 C 9.648438 -4.738281 10.953125 -4.171875 12.765625 -4.171875 C 14.554688 -4.171875 15.84375 -4.734375 16.625 -5.859375 C 17.414062 -6.984375 17.8125 -8.757812 17.8125 -11.1875 Z M 17.8125 -11.1875 "/></g></g></g></svg>