<svg xmlns="http://www.w3.org/2000/svg" xmlns:xlink="http://www.w3.org/1999/xlink" width="500" zoomAndPan="magnify" viewBox="0 0 375 374.999991" height="500" preserveAspectRatio="xMidYMid meet" version="1.0"><defs><g/><clipPath id="a3b4e19881"><path d="M 80.523438 210 L 176 210 L 176 283 L 80.523438 283 Z M 80.523438 210 " clip-rule="nonzero"/></clipPath><clipPath id="99c8c2d398"><path d="M 184 23.820312 L 194 23.820312 L 194 308.070312 L 184 308.070312 Z M 184 23.820312 " clip-rule="nonzero"/></clipPath><clipPath id="b7a3e7d176"><path d="M 199 49 L 302.523438 49 L 302.523438 284 L 199 284 Z M 199 49 " clip-rule="nonzero"/></clipPath></defs><path fill="#ffffff" d="M 175.191406 179.535156 L 175.191406 141.40625 C 150.992188 138.160156 131.152344 132.335938 131.152344 114.40625 C 131.152344 98.355469 145.445312 85.648438 175.191406 85.21875 L 175.191406 49.082031 C 134.699219 49.488281 90.269531 68.035156 90.269531 113.144531 C 90.269531 161.882812 130.828125 174.101562 175.191406 179.535156 Z M 175.191406 179.535156 " fill-opacity="1" fill-rule="nonzero"/><g clip-path="url(#a3b4e19881)"><path fill="#ffffff" d="M 175.191406 245.03125 C 149.152344 244.542969 124.636719 233.808594 115.113281 210.191406 L 80.523438 228.09375 C 96.726562 267.914062 130.832031 281.84375 175.191406 282.097656 Z M 175.191406 245.03125 " fill-opacity="1" fill-rule="nonzero"/></g><g clip-path="url(#99c8c2d398)"><path fill="#ffffff" d="M 184.335938 23.855469 L 193.480469 23.855469 L 193.480469 308.03125 L 184.335938 308.03125 Z M 184.335938 23.855469 " fill-opacity="1" fill-rule="nonzero"/></g><g clip-path="url(#b7a3e7d176)"><path fill="#ffffff" d="M 258.75 49.53125 L 258.75 147.929688 L 199.847656 147.929688 L 199.847656 188.621094 L 258.75 188.621094 L 258.75 283.011719 L 302.503906 283.011719 L 302.503906 49.53125 Z M 258.75 49.53125 " fill-opacity="1" fill-rule="nonzero"/></g><g fill="#ffffff" fill-opacity="1"><g transform="translate(73.151751, 342.746877)"><g><path d="M 13.324219 0.503906 C 19.789062 0.503906 23.558594 -2.765625 23.558594 -7.9375 C 23.558594 -14.152344 18.136719 -15.371094 13.574219 -16.378906 C 10.234375 -17.132812 7.289062 -17.777344 7.289062 -20.292969 C 7.289062 -22.375 9.160156 -23.488281 11.746094 -23.488281 C 14.546875 -23.488281 16.878906 -22.160156 17.5625 -19.25 L 22.84375 -19.25 C 21.980469 -25.175781 17.132812 -27.90625 11.851562 -27.90625 C 6.320312 -27.90625 2.15625 -25.140625 2.15625 -19.859375 C 2.15625 -14.078125 7.253906 -12.964844 11.746094 -11.960938 C 15.226562 -11.207031 18.351562 -10.523438 18.351562 -7.6875 C 18.351562 -5.0625 16.199219 -3.914062 13.359375 -3.914062 C 10.488281 -3.914062 7.507812 -4.992188 6.609375 -8.90625 L 1.257812 -8.90625 C 1.9375 -1.832031 8.042969 0.503906 13.324219 0.503906 Z M 13.324219 0.503906 "/></g></g></g><g fill="#ffffff" fill-opacity="1"><g transform="translate(98.143765, 342.746877)"><g><path d="M 8.007812 0.394531 C 9.734375 0.394531 11.3125 0.109375 12.570312 -0.71875 C 13.324219 -1.183594 13.898438 -1.832031 14.402344 -2.730469 L 14.402344 0 L 19.25 0 L 19.25 -10.488281 C 19.25 -13.289062 19.25 -16.449219 16.878906 -18.53125 C 15.371094 -19.933594 13.109375 -20.578125 10.773438 -20.578125 C 6.789062 -20.578125 2.875 -18.425781 2.15625 -13.71875 L 6.96875 -13.71875 C 7.328125 -15.621094 8.90625 -16.773438 10.738281 -16.773438 C 11.886719 -16.773438 12.820312 -16.449219 13.433594 -15.800781 C 14.042969 -15.15625 14.367188 -14.1875 14.402344 -12.964844 L 8.402344 -11.851562 C 6.714844 -11.527344 4.992188 -11.027344 3.699219 -10.128906 C 2.296875 -9.160156 1.402344 -7.6875 1.402344 -5.53125 C 1.402344 -1.6875 4.203125 0.394531 8.007812 0.394531 Z M 9.195312 -3.410156 C 7.507812 -3.410156 6.25 -4.203125 6.25 -5.710938 C 6.25 -6.394531 6.5 -6.894531 6.894531 -7.289062 C 7.46875 -7.828125 8.296875 -8.1875 9.695312 -8.441406 L 14.507812 -9.410156 C 14.4375 -6.753906 13.898438 -5.027344 11.78125 -3.988281 C 10.988281 -3.589844 10.09375 -3.410156 9.195312 -3.410156 Z M 9.195312 -3.410156 "/></g></g></g><g fill="#ffffff" fill-opacity="1"><g transform="translate(119.365442, 342.746877)"><g><path d="M 7.039062 0 L 7.039062 -10.667969 C 7.039062 -13.253906 7.433594 -14.617188 8.222656 -15.550781 C 8.800781 -16.199219 9.625 -16.59375 10.667969 -16.59375 C 12.679688 -16.59375 13.863281 -15.335938 13.863281 -12.605469 L 13.863281 0 L 18.710938 0 L 18.710938 -10.667969 C 18.710938 -13 19 -14.582031 19.933594 -15.621094 C 20.472656 -16.199219 21.261719 -16.59375 22.339844 -16.59375 C 24.386719 -16.59375 25.5 -15.371094 25.5 -12.605469 L 25.5 0 L 30.347656 0 L 30.347656 -13.214844 C 30.347656 -17.707031 28.265625 -20.578125 23.738281 -20.578125 C 21.082031 -20.578125 19.144531 -19.609375 17.8125 -17.347656 C 17.167969 -19.5 15.15625 -20.578125 12.535156 -20.578125 C 10.453125 -20.578125 8.621094 -19.789062 7.039062 -17.597656 L 7.039062 -20.148438 L 2.191406 -20.148438 L 2.191406 0 Z M 7.039062 0 "/></g></g></g><g fill="#ffffff" fill-opacity="1"><g transform="translate(151.790431, 342.746877)"><g><path d="M 4.632812 -22.375 C 6.25 -22.375 7.613281 -23.453125 7.613281 -25.140625 C 7.613281 -26.757812 6.25 -27.90625 4.632812 -27.90625 C 2.980469 -27.90625 1.652344 -26.757812 1.652344 -25.140625 C 1.652344 -23.453125 2.980469 -22.375 4.632812 -22.375 Z M 7.039062 0 L 7.039062 -20.148438 L 2.191406 -20.148438 L 2.191406 0 Z M 7.039062 0 "/></g></g></g><g fill="#ffffff" fill-opacity="1"><g transform="translate(161.054716, 342.746877)"><g><path d="M 7.039062 0 L 7.039062 -9.335938 C 7.039062 -11.996094 7.578125 -13.613281 8.65625 -14.6875 C 9.445312 -15.445312 10.59375 -15.910156 12.246094 -15.910156 L 13.359375 -15.910156 L 13.359375 -20.578125 L 12.785156 -20.578125 C 10.414062 -20.578125 8.582031 -19.859375 7.039062 -17.742188 L 7.039062 -20.148438 L 2.191406 -20.148438 L 2.191406 0 Z M 7.039062 0 "/></g></g></g><g fill="#ffffff" fill-opacity="1"><g transform="translate(175.094771, 342.746877)"><g><path d="M 8.007812 0.394531 C 9.734375 0.394531 11.3125 0.109375 12.570312 -0.71875 C 13.324219 -1.183594 13.898438 -1.832031 14.402344 -2.730469 L 14.402344 0 L 19.25 0 L 19.25 -10.488281 C 19.25 -13.289062 19.25 -16.449219 16.878906 -18.53125 C 15.371094 -19.933594 13.109375 -20.578125 10.773438 -20.578125 C 6.789062 -20.578125 2.875 -18.425781 2.15625 -13.71875 L 6.96875 -13.71875 C 7.328125 -15.621094 8.90625 -16.773438 10.738281 -16.773438 C 11.886719 -16.773438 12.820312 -16.449219 13.433594 -15.800781 C 14.042969 -15.15625 14.367188 -14.1875 14.402344 -12.964844 L 8.402344 -11.851562 C 6.714844 -11.527344 4.992188 -11.027344 3.699219 -10.128906 C 2.296875 -9.160156 1.402344 -7.6875 1.402344 -5.53125 C 1.402344 -1.6875 4.203125 0.394531 8.007812 0.394531 Z M 9.195312 -3.410156 C 7.507812 -3.410156 6.25 -4.203125 6.25 -5.710938 C 6.25 -6.394531 6.5 -6.894531 6.894531 -7.289062 C 7.46875 -7.828125 8.296875 -8.1875 9.695312 -8.441406 L 14.507812 -9.410156 C 14.4375 -6.753906 13.898438 -5.027344 11.78125 -3.988281 C 10.988281 -3.589844 10.09375 -3.410156 9.195312 -3.410156 Z M 9.195312 -3.410156 "/></g></g></g><g fill="#ffffff" fill-opacity="1"><g transform="translate(196.316447, 342.746877)"><g/></g></g><g fill="#ffffff" fill-opacity="1"><g transform="translate(205.939804, 342.746877)"><g><path d="M 7.613281 0 L 7.613281 -11.421875 L 19.359375 -11.421875 L 19.359375 0 L 24.53125 0 L 24.53125 -27.402344 L 19.359375 -27.402344 L 19.359375 -16.054688 L 7.613281 -16.054688 L 7.613281 -27.402344 L 2.441406 -27.402344 L 2.441406 0 Z M 7.613281 0 "/></g></g></g><g fill="#ffffff" fill-opacity="1"><g transform="translate(232.942682, 342.746877)"><g><path d="M 8.007812 0.394531 C 9.734375 0.394531 11.3125 0.109375 12.570312 -0.71875 C 13.324219 -1.183594 13.898438 -1.832031 14.402344 -2.730469 L 14.402344 0 L 19.25 0 L 19.25 -10.488281 C 19.25 -13.289062 19.25 -16.449219 16.878906 -18.53125 C 15.371094 -19.933594 13.109375 -20.578125 10.773438 -20.578125 C 6.789062 -20.578125 2.875 -18.425781 2.15625 -13.71875 L 6.96875 -13.71875 C 7.328125 -15.621094 8.90625 -16.773438 10.738281 -16.773438 C 11.886719 -16.773438 12.820312 -16.449219 13.433594 -15.800781 C 14.042969 -15.15625 14.367188 -14.1875 14.402344 -12.964844 L 8.402344 -11.851562 C 6.714844 -11.527344 4.992188 -11.027344 3.699219 -10.128906 C 2.296875 -9.160156 1.402344 -7.6875 1.402344 -5.53125 C 1.402344 -1.6875 4.203125 0.394531 8.007812 0.394531 Z M 9.195312 -3.410156 C 7.507812 -3.410156 6.25 -4.203125 6.25 -5.710938 C 6.25 -6.394531 6.5 -6.894531 6.894531 -7.289062 C 7.46875 -7.828125 8.296875 -8.1875 9.695312 -8.441406 L 14.507812 -9.410156 C 14.4375 -6.753906 13.898438 -5.027344 11.78125 -3.988281 C 10.988281 -3.589844 10.09375 -3.410156 9.195312 -3.410156 Z M 9.195312 -3.410156 "/></g></g></g><g fill="#ffffff" fill-opacity="1"><g transform="translate(254.164359, 342.746877)"><g><path d="M 10.308594 0.394531 C 12.679688 0.394531 14.402344 -0.289062 16.019531 -2.550781 L 16.019531 0 L 20.867188 0 L 20.867188 -27.402344 L 16.019531 -27.402344 L 16.019531 -17.597656 C 14.402344 -19.898438 12.679688 -20.578125 10.308594 -20.578125 C 5.027344 -20.578125 1.4375 -16.269531 1.4375 -10.09375 C 1.4375 -3.914062 5.027344 0.394531 10.308594 0.394531 Z M 11.421875 -3.769531 C 8.332031 -3.769531 6.320312 -6.429688 6.320312 -10.09375 C 6.320312 -13.753906 8.332031 -16.414062 11.421875 -16.414062 C 14.507812 -16.414062 16.628906 -13.828125 16.628906 -10.09375 C 16.628906 -6.355469 14.507812 -3.769531 11.421875 -3.769531 Z M 11.421875 -3.769531 "/></g></g></g><g fill="#ffffff" fill-opacity="1"><g transform="translate(277.253245, 342.746877)"><g><path d="M 4.632812 -22.375 C 6.25 -22.375 7.613281 -23.453125 7.613281 -25.140625 C 7.613281 -26.757812 6.25 -27.90625 4.632812 -27.90625 C 2.980469 -27.90625 1.652344 -26.757812 1.652344 -25.140625 C 1.652344 -23.453125 2.980469 -22.375 4.632812 -22.375 Z M 7.039062 0 L 7.039062 -20.148438 L 2.191406 -20.148438 L 2.191406 0 Z M 7.039062 0 "/></g></g></g><g fill="#ffffff" fill-opacity="1"><g transform="translate(286.51753, 342.746877)"><g><path d="M 10.308594 0.394531 C 12.679688 0.394531 14.402344 -0.289062 16.019531 -2.550781 L 16.019531 0 L 20.867188 0 L 20.867188 -27.402344 L 16.019531 -27.402344 L 16.019531 -17.597656 C 14.402344 -19.898438 12.679688 -20.578125 10.308594 -20.578125 C 5.027344 -20.578125 1.4375 -16.269531 1.4375 -10.09375 C 1.4375 -3.914062 5.027344 0.394531 10.308594 0.394531 Z M 11.421875 -3.769531 C 8.332031 -3.769531 6.320312 -6.429688 6.320312 -10.09375 C 6.320312 -13.753906 8.332031 -16.414062 11.421875 -16.414062 C 14.507812 -16.414062 16.628906 -13.828125 16.628906 -10.09375 C 16.628906 -6.355469 14.507812 -3.769531 11.421875 -3.769531 Z M 11.421875 -3.769531 "/></g></g></g></svg>