<svg xmlns="http://www.w3.org/2000/svg" xmlns:xlink="http://www.w3.org/1999/xlink" width="500" zoomAndPan="magnify" viewBox="0 0 375 374.999991" height="500" preserveAspectRatio="xMidYMid meet" version="1.0"><defs><g/></defs><g fill="#000000" fill-opacity="1"><g transform="translate(53.975654, 234.951998)"><g><path d="M 142.300781 -2.71875 L 73.417969 -179.917969 C 72.738281 -181.730469 69.566406 -181.730469 68.886719 -179.917969 L 0.226562 -2.71875 C -0.453125 -1.359375 0.453125 0 2.492188 0 L 33.535156 0 C 34.441406 0 35.574219 -0.453125 35.800781 -1.359375 L 71.152344 -102.421875 L 106.953125 -1.359375 C 107.179688 -0.453125 108.3125 0 108.992188 0 L 140.261719 0 C 141.847656 0 142.984375 -1.359375 142.300781 -2.71875 Z M 142.300781 -2.71875 "/></g></g></g><g fill="#000000" fill-opacity="1"><g transform="translate(188.606948, 314.69293)"><g><path d="M 94.492188 -147.515625 L 70.699219 -81.121094 L 35.347656 -179.917969 C 35.121094 -180.824219 34.214844 -181.277344 33.082031 -181.277344 L 2.265625 -181.277344 C 0.453125 -181.277344 -0.453125 -179.917969 0.226562 -178.558594 L 68.433594 -1.132812 C 69.339844 0.453125 72.058594 0.453125 72.738281 -1.132812 L 129.386719 -147.515625 Z M 94.492188 -147.515625 "/></g></g></g><g fill="#000000" fill-opacity="1"><g transform="translate(58.032831, 283.788977)"><g><path d="M 4.078125 0 L -0.078125 0 L 5.84375 -16 L 9.953125 -16 L 15.71875 0 L 11.578125 0 L 10.734375 -2.671875 L 4.921875 -2.671875 Z M 7.8125 -12.0625 C 7.675781 -11.59375 7.523438 -11.085938 7.359375 -10.546875 C 7.203125 -10.015625 6.9375 -9.144531 6.5625 -7.9375 L 5.890625 -5.8125 L 9.75 -5.8125 L 9.078125 -7.9375 C 8.859375 -8.582031 8.640625 -9.265625 8.421875 -9.984375 C 8.203125 -10.710938 8 -11.40625 7.8125 -12.0625 Z M 7.8125 -12.0625 "/></g></g></g><g fill="#000000" fill-opacity="1"><g transform="translate(87.638882, 283.788977)"><g><path d="M 5.484375 0 L -0.046875 -16 L 4.359375 -16 L 6.734375 -8.09375 C 6.890625 -7.5625 7.078125 -6.859375 7.296875 -5.984375 C 7.515625 -5.109375 7.726562 -4.238281 7.9375 -3.375 C 8.3125 -4.914062 8.578125 -6 8.734375 -6.625 C 8.898438 -7.257812 9.023438 -7.738281 9.109375 -8.0625 L 11.453125 -16 L 15.75 -16 L 10.234375 0 Z M 5.484375 0 "/></g></g></g><g fill="#000000" fill-opacity="1"><g transform="translate(117.244932, 283.788977)"><g><path d="M 12.25 -3.703125 L 12.25 0 L 1.21875 0 L 1.21875 -16 L 12.015625 -16 L 12.015625 -12.421875 L 5.171875 -12.421875 L 5.171875 -9.765625 L 11.078125 -9.765625 L 11.078125 -6.453125 L 5.171875 -6.453125 L 5.171875 -3.703125 Z M 12.25 -3.703125 "/></g></g></g><g fill="#000000" fill-opacity="1"><g transform="translate(144.043831, 283.788977)"><g><path d="M 5.171875 -5.15625 L 5.171875 0 L 1.21875 0 L 1.21875 -16 L 7.0625 -16 C 9.53125 -16 11.28125 -15.582031 12.3125 -14.75 C 13.351562 -13.914062 13.875 -12.53125 13.875 -10.59375 C 13.875 -9.28125 13.597656 -8.210938 13.046875 -7.390625 C 12.492188 -6.566406 11.65625 -5.96875 10.53125 -5.59375 L 14.4375 0 L 9.703125 0 L 6.375 -5.15625 Z M 9.875 -10.59375 C 9.875 -11.269531 9.671875 -11.742188 9.265625 -12.015625 C 8.859375 -12.285156 8.125 -12.421875 7.0625 -12.421875 L 5.171875 -12.421875 L 5.171875 -8.34375 L 7.0625 -8.34375 C 8.125 -8.34375 8.859375 -8.507812 9.265625 -8.84375 C 9.671875 -9.175781 9.875 -9.757812 9.875 -10.59375 Z M 9.875 -10.59375 "/></g></g></g><g fill="#000000" fill-opacity="1"><g transform="translate(172.680138, 283.788977)"><g><path d="M 11.15625 -16 L 15.234375 -16 L 9.640625 -5.8125 L 9.640625 0 L 5.6875 0 L 5.6875 -5.8125 L -0.046875 -16 L 4.46875 -16 L 7.6875 -9.3125 Z M 11.15625 -16 "/></g></g></g><g fill="#000000" fill-opacity="1"><g transform="translate(249.246958, 159.441562)"><g><path d="M 6.8125 0 L 1.21875 0 L 1.21875 -16 L 6.8125 -16 C 8.445312 -16 9.742188 -15.863281 10.703125 -15.59375 C 11.660156 -15.320312 12.429688 -14.882812 13.015625 -14.28125 C 13.585938 -13.6875 14.003906 -12.882812 14.265625 -11.875 C 14.535156 -10.863281 14.671875 -9.578125 14.671875 -8.015625 C 14.671875 -5.242188 14.050781 -3.210938 12.8125 -1.921875 C 11.570312 -0.640625 9.570312 0 6.8125 0 Z M 9.953125 -11.40625 C 9.710938 -11.757812 9.363281 -12.015625 8.90625 -12.171875 C 8.445312 -12.335938 7.75 -12.421875 6.8125 -12.421875 L 5.171875 -12.421875 L 5.171875 -3.703125 L 6.8125 -3.703125 C 7.726562 -3.703125 8.414062 -3.773438 8.875 -3.921875 C 9.332031 -4.078125 9.691406 -4.328125 9.953125 -4.671875 C 10.171875 -4.992188 10.332031 -5.421875 10.4375 -5.953125 C 10.539062 -6.492188 10.59375 -7.179688 10.59375 -8.015625 C 10.59375 -8.859375 10.539062 -9.546875 10.4375 -10.078125 C 10.332031 -10.617188 10.171875 -11.0625 9.953125 -11.40625 Z M 9.953125 -11.40625 "/></g></g></g><g fill="#000000" fill-opacity="1"><g transform="translate(265.911566, 159.441562)"><g><path d="M 4.078125 0 L -0.078125 0 L 5.84375 -16 L 9.953125 -16 L 15.71875 0 L 11.578125 0 L 10.734375 -2.671875 L 4.921875 -2.671875 Z M 7.8125 -12.0625 C 7.675781 -11.59375 7.523438 -11.085938 7.359375 -10.546875 C 7.203125 -10.015625 6.9375 -9.144531 6.5625 -7.9375 L 5.890625 -5.8125 L 9.75 -5.8125 L 9.078125 -7.9375 C 8.859375 -8.582031 8.640625 -9.265625 8.421875 -9.984375 C 8.203125 -10.710938 8 -11.40625 7.8125 -12.0625 Z M 7.8125 -12.0625 "/></g></g></g><g fill="#000000" fill-opacity="1"><g transform="translate(282.907929, 159.441562)"><g><path d="M 5.484375 0 L -0.046875 -16 L 4.359375 -16 L 6.734375 -8.09375 C 6.890625 -7.5625 7.078125 -6.859375 7.296875 -5.984375 C 7.515625 -5.109375 7.726562 -4.238281 7.9375 -3.375 C 8.3125 -4.914062 8.578125 -6 8.734375 -6.625 C 8.898438 -7.257812 9.023438 -7.738281 9.109375 -8.0625 L 11.453125 -16 L 15.75 -16 L 10.234375 0 Z M 5.484375 0 "/></g></g></g><g fill="#000000" fill-opacity="1"><g transform="translate(299.904293, 159.441562)"><g><path d="M 5.171875 -16 L 5.171875 0 L 1.21875 0 L 1.21875 -16 Z M 5.171875 -16 "/></g></g></g><g fill="#000000" fill-opacity="1"><g transform="translate(307.611517, 159.441562)"><g><path d="M 7.296875 -5.96875 L 4.0625 -6.734375 C 2.769531 -7.046875 1.890625 -7.515625 1.421875 -8.140625 C 0.953125 -8.765625 0.71875 -9.664062 0.71875 -10.84375 C 0.71875 -12.695312 1.207031 -14.0625 2.1875 -14.9375 C 3.164062 -15.8125 4.679688 -16.25 6.734375 -16.25 C 7.585938 -16.25 8.34375 -16.210938 9 -16.140625 C 9.664062 -16.078125 10.28125 -15.960938 10.84375 -15.796875 L 10.84375 -12.25 C 9.550781 -12.46875 8.660156 -12.59375 8.171875 -12.625 C 7.691406 -12.664062 7.1875 -12.6875 6.65625 -12.6875 C 5.945312 -12.6875 5.429688 -12.566406 5.109375 -12.328125 C 4.785156 -12.085938 4.625 -11.6875 4.625 -11.125 C 4.625 -10.851562 4.671875 -10.644531 4.765625 -10.5 C 4.867188 -10.351562 5.066406 -10.25 5.359375 -10.1875 L 8.421875 -9.46875 C 9.304688 -9.257812 9.941406 -9.054688 10.328125 -8.859375 C 10.722656 -8.671875 11.039062 -8.421875 11.28125 -8.109375 C 11.550781 -7.785156 11.75 -7.367188 11.875 -6.859375 C 12 -6.347656 12.0625 -5.726562 12.0625 -5 C 12.0625 -3.144531 11.566406 -1.804688 10.578125 -0.984375 C 9.597656 -0.160156 8.070312 0.25 6 0.25 C 4.945312 0.25 3.941406 0.1875 2.984375 0.0625 C 2.035156 -0.0625 1.296875 -0.21875 0.765625 -0.40625 L 0.765625 -4.15625 C 1.441406 -3.9375 2.25 -3.757812 3.1875 -3.625 C 4.125 -3.5 5.0625 -3.4375 6 -3.4375 C 6.75 -3.4375 7.265625 -3.53125 7.546875 -3.71875 C 7.835938 -3.90625 7.984375 -4.28125 7.984375 -4.84375 C 7.984375 -5.207031 7.9375 -5.46875 7.84375 -5.625 C 7.75 -5.789062 7.566406 -5.90625 7.296875 -5.96875 Z M 7.296875 -5.96875 "/></g></g></g></svg>