<svg xmlns="http://www.w3.org/2000/svg" xmlns:xlink="http://www.w3.org/1999/xlink" width="500" zoomAndPan="magnify" viewBox="0 0 375 374.999991" height="500" preserveAspectRatio="xMidYMid meet" version="1.0"><defs><g/><clipPath id="2af9f580f5"><path d="M 55.324219 64 L 268 64 L 268 208 L 55.324219 208 Z M 55.324219 64 " clip-rule="nonzero"/></clipPath><clipPath id="bb308f1dbd"><path d="M 181 43.734375 L 319.675781 43.734375 L 319.675781 208 L 181 208 Z M 181 43.734375 " clip-rule="nonzero"/></clipPath><clipPath id="33b0d205d9"><path d="M 93 148 L 180 148 L 180 230.101562 L 93 230.101562 Z M 93 148 " clip-rule="nonzero"/></clipPath><clipPath id="53735c64ee"><path d="M 107 106 L 282 106 L 282 230.101562 L 107 230.101562 Z M 107 106 " clip-rule="nonzero"/></clipPath><clipPath id="3cebbb2d0c"><path d="M 147 169 L 228 169 L 228 230.101562 L 147 230.101562 Z M 147 169 " clip-rule="nonzero"/></clipPath></defs><g clip-path="url(#2af9f580f5)"><path fill="#000000" d="M 173.808594 81.425781 L 182.003906 93.945312 L 187.5 102.363281 L 256.0625 207.179688 L 267.109375 207.179688 L 191.359375 91.457031 L 187.5 85.554688 L 179.304688 73.035156 L 173.808594 64.644531 L 92.875 188.308594 L 67.132812 104.636719 L 55.34375 97.570312 L 86.980469 200.351562 L 89.070312 207.179688 L 91.503906 207.179688 L 95.203125 201.515625 Z M 173.808594 81.425781 " fill-opacity="1" fill-rule="evenodd"/></g><path fill="#000000" d="M 290.265625 115.199219 L 278.476562 122.265625 L 271.101562 146.355469 L 277.65625 156.359375 Z M 290.265625 115.199219 " fill-opacity="1" fill-rule="evenodd"/><path fill="#000000" d="M 103.898438 146.355469 L 96.496094 122.265625 L 84.734375 115.199219 L 97.34375 156.359375 Z M 103.898438 146.355469 " fill-opacity="1" fill-rule="evenodd"/><g clip-path="url(#bb308f1dbd)"><path fill="#000000" d="M 307.867188 104.636719 L 282.125 188.308594 L 191.359375 49.609375 L 187.5 43.734375 L 183.640625 49.609375 L 181.710938 52.574219 L 187.5 60.515625 L 279.796875 201.515625 L 283.496094 207.179688 L 285.929688 207.179688 L 288.019531 200.351562 L 319.65625 97.570312 Z M 307.867188 104.636719 " fill-opacity="1" fill-rule="evenodd"/></g><g clip-path="url(#33b0d205d9)"><path fill="#000000" d="M 173.808594 148.3125 L 135.296875 207.152344 L 135.273438 207.179688 L 126.285156 220.890625 L 93.246094 220.917969 L 96.074219 230.101562 L 131.253906 230.101562 L 146.265625 207.179688 L 179.304688 156.703125 Z M 173.808594 148.3125 " fill-opacity="1" fill-rule="evenodd"/></g><g clip-path="url(#53735c64ee)"><path fill="#000000" d="M 239.726562 207.179688 C 219.5625 176.398438 199.445312 145.640625 179.304688 114.855469 L 176.714844 110.886719 L 173.808594 106.4375 L 107.863281 207.179688 L 118.9375 207.179688 L 173.835938 123.273438 C 191.941406 150.933594 210.390625 179.121094 228.734375 207.152344 L 243.746094 230.078125 L 278.925781 230.078125 L 281.753906 220.863281 L 248.714844 220.863281 Z M 239.726562 207.179688 " fill-opacity="1" fill-rule="evenodd"/></g><g clip-path="url(#3cebbb2d0c)"><path fill="#000000" d="M 147.667969 230.101562 L 227.332031 230.101562 L 187.5 169.25 Z M 187.5 220.890625 L 164.691406 220.890625 L 187.5 186.03125 L 210.335938 220.890625 Z M 187.5 220.890625 " fill-opacity="1" fill-rule="evenodd"/></g><g fill="#000000" fill-opacity="1"><g transform="translate(94.111431, 306.149146)"><g><path d="M 20.625 -57.640625 L 20.625 0 L 3.5625 0 L 3.5625 -57.640625 Z M 54.75 -57.640625 L 38.4375 -32.046875 L 56.234375 0 L 36.859375 0 L 21.125 -30.734375 L 37.1875 -57.640625 Z M 54.75 -57.640625 "/></g></g></g><g fill="#000000" fill-opacity="1"><g transform="translate(148.68809, 306.149146)"><g><path d="M 20.625 -57.640625 L 20.625 0 L 3.5625 0 L 3.5625 -57.640625 Z M 20.625 -57.640625 "/></g></g></g><g fill="#000000" fill-opacity="1"><g transform="translate(172.870762, 306.149146)"><g><path d="M 50.359375 0 L 28.984375 0 L 16.40625 -42.078125 L 16.640625 -40.25 C 17.253906 -36.21875 17.738281 -32.53125 18.09375 -29.1875 C 18.457031 -25.851562 18.640625 -22.085938 18.640625 -17.890625 L 18.640625 0 L 3.5625 0 L 3.5625 -57.640625 L 24.515625 -57.640625 L 37.609375 -15.40625 L 37.359375 -17.140625 C 36.691406 -20.953125 36.175781 -24.5 35.8125 -27.78125 C 35.457031 -31.070312 35.28125 -34.867188 35.28125 -39.171875 L 35.28125 -57.640625 L 50.359375 -57.640625 Z M 50.359375 0 "/></g></g></g><g fill="#000000" fill-opacity="1"><g transform="translate(226.784899, 306.149146)"><g><path d="M 30.734375 -59.3125 C 34.867188 -59.3125 38.660156 -58.617188 42.109375 -57.234375 C 45.566406 -55.847656 48.59375 -54.023438 51.1875 -51.765625 L 42.90625 -43.15625 C 40.863281 -44.644531 39.015625 -45.71875 37.359375 -46.375 C 35.703125 -47.039062 33.820312 -47.375 31.71875 -47.375 C 27.6875 -47.375 24.59375 -45.84375 22.4375 -42.78125 C 20.289062 -39.71875 19.21875 -35.066406 19.21875 -28.828125 C 19.21875 -24.128906 19.546875 -20.441406 20.203125 -17.765625 C 20.867188 -15.085938 21.90625 -13.195312 23.3125 -12.09375 C 24.71875 -10.988281 26.582031 -10.4375 28.90625 -10.4375 C 30.945312 -10.4375 32.90625 -10.90625 34.78125 -11.84375 L 34.78125 -22.359375 L 28.984375 -22.359375 L 27.421875 -33.875 L 51.1875 -33.875 L 51.1875 -4.96875 C 48.144531 -2.875 44.664062 -1.242188 40.75 -0.078125 C 36.832031 1.078125 33.050781 1.65625 29.40625 1.65625 C 19.957031 1.65625 12.96875 -0.921875 8.4375 -6.078125 C 3.914062 -11.242188 1.65625 -18.851562 1.65625 -28.90625 C 1.65625 -35.257812 2.894531 -40.726562 5.375 -45.3125 C 7.863281 -49.894531 11.316406 -53.375 15.734375 -55.75 C 20.148438 -58.125 25.148438 -59.3125 30.734375 -59.3125 Z M 30.734375 -59.3125 "/></g></g></g><g fill="#000000" fill-opacity="1"><g transform="translate(96.91487, 326.491288)"><g><path d="M 16.046875 0 L 1.78125 0 L 1.78125 -12.828125 L 16.046875 -12.828125 L 16.046875 -10.796875 L 3.828125 -10.796875 L 3.828125 -7.4375 L 14.609375 -7.4375 L 14.609375 -5.390625 L 3.828125 -5.390625 L 3.828125 -2.03125 L 16.046875 -2.03125 Z M 16.046875 0 "/></g></g></g><g fill="#000000" fill-opacity="1"><g transform="translate(114.312551, 326.491288)"><g><path d="M 10.015625 0 L 8.9375 0 L 0.265625 -12.828125 L 2.734375 -12.828125 L 9.484375 -2.828125 L 16.21875 -12.828125 L 18.71875 -12.828125 Z M 10.015625 0 "/></g></g></g><g fill="#000000" fill-opacity="1"><g transform="translate(133.302409, 326.491288)"><g><path d="M 16.046875 0 L 1.78125 0 L 1.78125 -12.828125 L 16.046875 -12.828125 L 16.046875 -10.796875 L 3.828125 -10.796875 L 3.828125 -7.4375 L 14.609375 -7.4375 L 14.609375 -5.390625 L 3.828125 -5.390625 L 3.828125 -2.03125 L 16.046875 -2.03125 Z M 16.046875 0 "/></g></g></g><g fill="#000000" fill-opacity="1"><g transform="translate(150.70009, 326.491288)"><g><path d="M 17.0625 0 L 15.6875 0 L 3.828125 -9.671875 L 3.828125 0 L 1.78125 0 L 1.78125 -12.828125 L 3.171875 -12.828125 L 15.03125 -3.171875 L 15.03125 -12.828125 L 17.0625 -12.828125 Z M 17.0625 0 "/></g></g></g><g fill="#000000" fill-opacity="1"><g transform="translate(169.56472, 326.491288)"><g><path d="M 8.109375 0 L 6.078125 0 L 6.078125 -10.796875 L 0.265625 -10.796875 L 0.265625 -12.828125 L 13.921875 -12.828125 L 13.921875 -10.796875 L 8.109375 -10.796875 Z M 8.109375 0 "/></g></g></g><g fill="#000000" fill-opacity="1"><g transform="translate(183.760156, 326.491288)"><g><path d="M 13.5625 0 L 4.40625 0 C 3.550781 0 2.828125 -0.296875 2.234375 -0.890625 C 1.640625 -1.484375 1.34375 -2.207031 1.34375 -3.0625 L 3.375 -3.0625 C 3.375 -2.78125 3.472656 -2.535156 3.671875 -2.328125 C 3.878906 -2.128906 4.125 -2.03125 4.40625 -2.03125 L 13.5625 -2.03125 C 13.84375 -2.03125 14.082031 -2.128906 14.28125 -2.328125 C 14.476562 -2.535156 14.578125 -2.78125 14.578125 -3.0625 L 14.578125 -4.375 C 14.578125 -4.65625 14.476562 -4.894531 14.28125 -5.09375 C 14.082031 -5.289062 13.84375 -5.390625 13.5625 -5.390625 L 4.40625 -5.390625 C 3.550781 -5.390625 2.828125 -5.6875 2.234375 -6.28125 C 1.640625 -6.882812 1.34375 -7.609375 1.34375 -8.453125 L 1.34375 -9.765625 C 1.34375 -10.609375 1.640625 -11.328125 2.234375 -11.921875 C 2.828125 -12.523438 3.550781 -12.828125 4.40625 -12.828125 L 13.5625 -12.828125 C 14.40625 -12.828125 15.125 -12.523438 15.71875 -11.921875 C 16.320312 -11.328125 16.625 -10.609375 16.625 -9.765625 L 14.578125 -9.765625 C 14.578125 -10.046875 14.476562 -10.285156 14.28125 -10.484375 C 14.082031 -10.679688 13.84375 -10.78125 13.5625 -10.78125 L 4.40625 -10.78125 C 4.125 -10.78125 3.878906 -10.679688 3.671875 -10.484375 C 3.472656 -10.285156 3.375 -10.046875 3.375 -9.765625 L 3.375 -8.453125 C 3.375 -8.171875 3.472656 -7.929688 3.671875 -7.734375 C 3.878906 -7.535156 4.125 -7.4375 4.40625 -7.4375 L 13.5625 -7.4375 C 14.40625 -7.4375 15.125 -7.132812 15.71875 -6.53125 C 16.320312 -5.9375 16.625 -5.21875 16.625 -4.375 L 16.625 -3.0625 C 16.625 -2.207031 16.320312 -1.484375 15.71875 -0.890625 C 15.125 -0.296875 14.40625 0 13.5625 0 Z M 13.5625 0 "/></g></g></g><g fill="#000000" fill-opacity="1"><g transform="translate(201.730305, 326.491288)"><g/></g></g><g fill="#000000" fill-opacity="1"><g transform="translate(206.274273, 326.491288)"><g><path d="M 8.109375 0 L 6.078125 0 L 6.078125 -10.796875 L 0.265625 -10.796875 L 0.265625 -12.828125 L 13.921875 -12.828125 L 13.921875 -10.796875 L 8.109375 -10.796875 Z M 8.109375 0 "/></g></g></g><g fill="#000000" fill-opacity="1"><g transform="translate(220.469708, 326.491288)"><g><path d="M 16.046875 0 L 1.78125 0 L 1.78125 -12.828125 L 16.046875 -12.828125 L 16.046875 -10.796875 L 3.828125 -10.796875 L 3.828125 -7.4375 L 14.609375 -7.4375 L 14.609375 -5.390625 L 3.828125 -5.390625 L 3.828125 -2.03125 L 16.046875 -2.03125 Z M 16.046875 0 "/></g></g></g><g fill="#000000" fill-opacity="1"><g transform="translate(237.867389, 326.491288)"><g><path d="M 18.703125 0 L 16.234375 0 L 14.34375 -2.78125 L 4.609375 -2.78125 L 2.734375 0 L 0.265625 0 L 8.9375 -12.828125 L 10.03125 -12.828125 Z M 12.96875 -4.8125 L 9.484375 -9.984375 L 5.984375 -4.8125 Z M 12.96875 -4.8125 "/></g></g></g><g fill="#000000" fill-opacity="1"><g transform="translate(256.839358, 326.491288)"><g><path d="M 19.4375 0 L 17.390625 0 L 17.390625 -8.671875 L 11.125 0 L 10.09375 0 L 3.828125 -8.671875 L 3.828125 0 L 1.78125 0 L 1.78125 -12.828125 L 3.328125 -12.828125 L 10.609375 -2.75 L 17.890625 -12.828125 L 19.4375 -12.828125 Z M 19.4375 0 "/></g></g></g></svg>