<svg xmlns="http://www.w3.org/2000/svg" xmlns:xlink="http://www.w3.org/1999/xlink" width="500" zoomAndPan="magnify" viewBox="0 0 375 374.999991" height="500" preserveAspectRatio="xMidYMid meet" version="1.0"><defs><g/><clipPath id="e2f24cb061"><path d="M 50.070312 12.378906 L 324 12.378906 L 324 286.878906 L 50.070312 286.878906 Z M 50.070312 12.378906 " clip-rule="nonzero"/></clipPath></defs><g clip-path="url(#e2f24cb061)"><path fill="#ffffff" d="M 318.777344 195.945312 C 315.902344 195.945312 313.574219 193.605469 313.574219 190.726562 L 313.574219 30.710938 L 225.25 119.257812 C 223.214844 121.292969 219.921875 121.292969 217.886719 119.257812 C 215.859375 117.21875 215.859375 113.917969 217.886719 111.878906 L 315.097656 14.425781 C 316.585938 12.933594 318.820312 12.488281 320.769531 13.296875 C 322.710938 14.101562 323.980469 16.003906 323.980469 18.113281 L 323.980469 190.726562 C 323.980469 193.605469 321.652344 195.945312 318.777344 195.945312 Z M 55.890625 286.878906 C 53.019531 286.878906 50.6875 284.542969 50.6875 281.660156 L 50.6875 99.792969 C 50.6875 97.683594 51.957031 95.78125 53.902344 94.972656 C 55.847656 94.167969 58.085938 94.613281 59.574219 96.101562 L 150.277344 187.039062 C 152.308594 189.074219 152.308594 192.378906 150.277344 194.414062 C 148.246094 196.453125 144.949219 196.453125 142.917969 194.414062 L 61.097656 112.386719 L 61.097656 281.660156 C 61.097656 284.542969 58.765625 286.878906 55.890625 286.878906 Z M 318.777344 286.878906 C 317.445312 286.878906 316.113281 286.367188 315.097656 285.347656 L 52.214844 21.800781 C 50.179688 19.765625 50.179688 16.464844 52.214844 14.425781 C 54.246094 12.386719 57.539062 12.386719 59.574219 14.425781 L 322.453125 277.972656 C 324.488281 280.007812 324.488281 283.3125 322.453125 285.347656 C 321.4375 286.367188 320.105469 286.878906 318.777344 286.878906 " fill-opacity="1" fill-rule="nonzero"/></g><g fill="#fffbfa" fill-opacity="1"><g transform="translate(84.334209, 334.195171)"><g><path d="M 6.929688 0 C 7.296875 0 7.484375 -0.191406 7.484375 -0.554688 L 7.484375 -8.015625 L 12.171875 -2.546875 C 12.425781 -2.246094 12.699219 -2.246094 12.941406 -2.546875 L 17.695312 -8.070312 L 17.695312 -0.554688 C 17.695312 -0.191406 17.882812 0 18.25 0 L 22.539062 0 C 22.90625 0 23.09375 -0.191406 23.09375 -0.554688 L 23.09375 -20.320312 C 23.09375 -21.347656 22.378906 -21.59375 21.742188 -20.792969 L 12.5625 -9.3125 L 3.4375 -20.792969 C 2.773438 -21.632812 2.085938 -21.347656 2.085938 -20.320312 L 2.085938 -0.554688 C 2.085938 -0.191406 2.273438 0 2.640625 0 Z M 6.929688 0 "/></g></g></g><g fill="#fffbfa" fill-opacity="1"><g transform="translate(131.697626, 334.195171)"><g><path d="M 11.453125 -20.792969 C 11.03125 -21.648438 10.371094 -21.648438 9.949219 -20.792969 L 0.417969 -0.664062 C 0.242188 -0.269531 0.417969 0 0.824219 0 L 5.710938 0 C 6.011719 0 6.242188 -0.164062 6.347656 -0.445312 L 7.027344 -2.191406 L 14.378906 -2.191406 L 15.054688 -0.445312 C 15.164062 -0.164062 15.390625 0 15.691406 0 L 20.578125 0 C 20.984375 0 21.160156 -0.269531 20.984375 -0.664062 Z M 10.707031 -11.574219 L 12.753906 -6.347656 L 8.652344 -6.347656 Z M 10.707031 -11.574219 "/></g></g></g><g fill="#fffbfa" fill-opacity="1"><g transform="translate(175.311874, 334.195171)"><g><path d="M 6.878906 0 C 7.242188 0 7.433594 -0.191406 7.433594 -0.554688 L 7.433594 -10.476562 L 18.9375 0 C 19.804688 0.796875 20.429688 0.445312 20.429688 -0.5 L 20.429688 -20.238281 C 20.429688 -20.605469 20.238281 -20.792969 19.875 -20.792969 L 15.636719 -20.792969 C 15.269531 -20.792969 15.082031 -20.605469 15.082031 -20.238281 L 15.082031 -10.667969 L 3.4375 -20.929688 C 2.667969 -21.605469 2.085938 -21.269531 2.085938 -20.320312 L 2.085938 -0.554688 C 2.085938 -0.191406 2.273438 0 2.640625 0 Z M 6.878906 0 "/></g></g></g><g fill="#fffbfa" fill-opacity="1"><g transform="translate(220.008909, 334.195171)"><g><path d="M 12.480469 0.554688 C 16.53125 0.554688 19.792969 -0.949219 21.714844 -3.574219 C 21.851562 -3.738281 21.902344 -3.9375 21.902344 -4.183594 L 21.902344 -11.03125 C 21.902344 -11.398438 21.714844 -11.589844 21.347656 -11.589844 L 13.199219 -11.589844 C 12.832031 -11.589844 12.644531 -11.398438 12.644531 -11.03125 L 12.644531 -7.703125 C 12.644531 -7.351562 12.832031 -7.148438 13.199219 -7.148438 L 16.855469 -7.148438 L 16.855469 -6.011719 C 15.851562 -4.847656 14.335938 -4.15625 12.480469 -4.15625 C 9.042969 -4.15625 6.769531 -6.539062 6.769531 -10.398438 C 6.769531 -14.078125 9.042969 -16.351562 12.480469 -16.351562 C 14.445312 -16.351562 16.027344 -15.609375 17.058594 -14.363281 C 17.273438 -14.078125 17.519531 -14.023438 17.800781 -14.226562 L 21.457031 -16.664062 C 21.769531 -16.882812 21.824219 -17.136719 21.59375 -17.410156 C 19.601562 -19.875 16.40625 -21.347656 12.480469 -21.347656 C 5.710938 -21.347656 1.21875 -17.085938 1.21875 -10.398438 C 1.21875 -3.710938 5.710938 0.554688 12.480469 0.554688 Z M 12.480469 0.554688 "/></g></g></g><g fill="#fffbfa" fill-opacity="1"><g transform="translate(265.6534, 334.195171)"><g><path d="M 12.480469 0.554688 C 19.265625 0.554688 23.785156 -3.710938 23.785156 -10.398438 C 23.785156 -17.085938 19.265625 -21.347656 12.480469 -21.347656 C 5.710938 -21.347656 1.21875 -17.085938 1.21875 -10.398438 C 1.21875 -3.710938 5.710938 0.554688 12.480469 0.554688 Z M 12.480469 -4.441406 C 9.042969 -4.441406 6.769531 -6.714844 6.769531 -10.398438 C 6.769531 -14.078125 9.042969 -16.351562 12.480469 -16.351562 C 15.949219 -16.351562 18.25 -14.078125 18.25 -10.398438 C 18.25 -6.714844 15.949219 -4.441406 12.480469 -4.441406 Z M 12.480469 -4.441406 "/></g></g></g><g fill="#fffbfa" fill-opacity="1"><g transform="translate(135.56084, 358.921193)"><g><path d="M 1.566406 0 L 4.632812 0 C 7.722656 0 9.679688 -1.925781 9.679688 -4.855469 C 9.679688 -7.78125 7.722656 -9.707031 4.632812 -9.707031 L 1.566406 -9.707031 Z M 2.414062 -0.804688 L 2.414062 -8.902344 L 4.605469 -8.902344 C 7.199219 -8.902344 8.820312 -7.320312 8.820312 -4.855469 C 8.820312 -2.386719 7.210938 -0.804688 4.632812 -0.804688 Z M 2.414062 -0.804688 "/></g></g></g><g fill="#fffbfa" fill-opacity="1"><g transform="translate(151.675276, 358.921193)"><g><path d="M 1.566406 0 L 2.414062 0 L 2.414062 -9.707031 L 1.566406 -9.707031 Z M 1.566406 0 "/></g></g></g><g fill="#fffbfa" fill-opacity="1"><g transform="translate(161.202481, 358.921193)"><g><path d="M 5.796875 0.179688 C 8.75 0.179688 10.71875 -2.023438 10.691406 -5.101562 L 5.492188 -5.101562 L 5.492188 -4.300781 L 9.789062 -4.300781 C 9.609375 -2.175781 8.070312 -0.664062 5.8125 -0.664062 C 3.410156 -0.664062 1.746094 -2.371094 1.746094 -4.855469 C 1.746094 -7.335938 3.398438 -9.042969 5.8125 -9.042969 C 7.542969 -9.042969 8.875 -8.152344 9.484375 -6.710938 L 10.402344 -6.710938 C 9.777344 -8.597656 8.015625 -9.886719 5.769531 -9.886719 C 2.925781 -9.886719 0.886719 -7.792969 0.886719 -4.855469 C 0.886719 -1.914062 2.925781 0.179688 5.796875 0.179688 Z M 5.796875 0.179688 "/></g></g></g><g fill="#fffbfa" fill-opacity="1"><g transform="translate(178.287677, 358.921193)"><g><path d="M 1.566406 0 L 2.414062 0 L 2.414062 -9.707031 L 1.566406 -9.707031 Z M 1.566406 0 "/></g></g></g><g fill="#fffbfa" fill-opacity="1"><g transform="translate(187.814881, 358.921193)"><g><path d="M 3.867188 0 L 4.703125 0 L 4.703125 -8.902344 L 8.058594 -8.902344 L 8.058594 -9.707031 L 0.527344 -9.707031 L 0.527344 -8.902344 L 3.867188 -8.902344 Z M 3.867188 0 "/></g></g></g><g fill="#fffbfa" fill-opacity="1"><g transform="translate(201.946219, 358.921193)"><g><path d="M 0.304688 0 L 1.207031 0 L 2.203125 -2.441406 L 7.253906 -2.441406 L 8.265625 0 L 9.152344 0 L 5.132812 -9.707031 L 4.328125 -9.707031 Z M 2.539062 -3.21875 L 4.730469 -8.554688 L 6.933594 -3.21875 Z M 2.539062 -3.21875 "/></g></g></g><g fill="#fffbfa" fill-opacity="1"><g transform="translate(216.965105, 358.921193)"><g><path d="M 1.566406 0 L 7.335938 0 L 7.335938 -0.804688 L 2.414062 -0.804688 L 2.414062 -9.707031 L 1.566406 -9.707031 Z M 1.566406 0 "/></g></g></g><g fill="#fffbfa" fill-opacity="1"><g transform="translate(230.319836, 358.921193)"><g><path d="M 4.6875 0.179688 C 6.796875 0.179688 8.125 -0.847656 8.125 -2.46875 C 8.125 -3.855469 7.183594 -4.714844 4.730469 -5.285156 C 2.691406 -5.742188 1.96875 -6.335938 1.96875 -7.308594 C 1.96875 -8.375 2.882812 -9.082031 4.453125 -9.082031 C 6.074219 -9.082031 7.058594 -8.308594 7.128906 -6.933594 L 7.960938 -6.933594 C 7.890625 -8.804688 6.585938 -9.886719 4.453125 -9.886719 C 2.386719 -9.886719 1.125 -8.863281 1.125 -7.308594 C 1.125 -5.851562 2.136719 -5.046875 4.519531 -4.492188 C 6.476562 -4.0625 7.265625 -3.46875 7.265625 -2.453125 C 7.265625 -1.332031 6.28125 -0.625 4.6875 -0.625 C 3.007812 -0.625 1.886719 -1.457031 1.804688 -2.882812 L 0.972656 -2.882812 C 1.039062 -1.011719 2.46875 0.179688 4.6875 0.179688 Z M 4.6875 0.179688 "/></g></g></g></svg>