<svg xmlns="http://www.w3.org/2000/svg" xmlns:xlink="http://www.w3.org/1999/xlink" width="500" zoomAndPan="magnify" viewBox="0 0 375 374.999991" height="500" preserveAspectRatio="xMidYMid meet" version="1.0"><defs><g/></defs><g fill="#ffffff" fill-opacity="1"><g transform="translate(54.276403, 219.021395)"><g><path d="M 142.152344 -2.714844 L 73.339844 -179.726562 C 72.660156 -181.539062 69.492188 -181.539062 68.8125 -179.726562 L 0.226562 -2.714844 C -0.453125 -1.359375 0.453125 0 2.488281 0 L 33.5 0 C 34.40625 0 35.539062 -0.453125 35.765625 -1.359375 L 71.074219 -102.3125 L 106.839844 -1.359375 C 107.066406 -0.453125 108.199219 0 108.878906 0 L 140.113281 0 C 141.699219 0 142.832031 -1.359375 142.152344 -2.714844 Z M 142.152344 -2.714844 "/></g></g></g><g fill="#ffffff" fill-opacity="1"><g transform="translate(188.764889, 298.677836)"><g><path d="M 94.390625 -147.359375 L 70.625 -81.035156 L 35.3125 -179.726562 C 35.085938 -180.632812 34.179688 -181.085938 33.046875 -181.085938 L 2.261719 -181.085938 C 0.453125 -181.085938 -0.453125 -179.726562 0.226562 -178.367188 L 68.359375 -1.132812 C 69.265625 0.453125 71.980469 0.453125 72.660156 -1.132812 L 129.25 -147.359375 Z M 94.390625 -147.359375 "/></g></g></g><g fill="#ffffff" fill-opacity="1"><g transform="translate(58.329278, 267.80666)"><g><path d="M 4.078125 0 L -0.078125 0 L 5.84375 -15.984375 L 9.9375 -15.984375 L 15.703125 0 L 11.578125 0 L 10.734375 -2.671875 L 4.921875 -2.671875 Z M 7.796875 -12.0625 C 7.660156 -11.582031 7.507812 -11.070312 7.34375 -10.53125 C 7.1875 -10 6.921875 -9.132812 6.546875 -7.9375 L 5.890625 -5.8125 L 9.734375 -5.8125 L 9.078125 -7.9375 C 8.859375 -8.582031 8.632812 -9.265625 8.40625 -9.984375 C 8.1875 -10.703125 7.984375 -11.394531 7.796875 -12.0625 Z M 7.796875 -12.0625 "/></g></g></g><g fill="#ffffff" fill-opacity="1"><g transform="translate(87.903922, 267.80666)"><g><path d="M 5.484375 0 L -0.046875 -15.984375 L 4.359375 -15.984375 L 6.734375 -8.078125 C 6.890625 -7.554688 7.078125 -6.859375 7.296875 -5.984375 C 7.515625 -5.109375 7.726562 -4.234375 7.9375 -3.359375 C 8.300781 -4.910156 8.5625 -6 8.71875 -6.625 C 8.882812 -7.257812 9.015625 -7.738281 9.109375 -8.0625 L 11.453125 -15.984375 L 15.734375 -15.984375 L 10.21875 0 Z M 5.484375 0 "/></g></g></g><g fill="#ffffff" fill-opacity="1"><g transform="translate(117.478566, 267.80666)"><g><path d="M 12.234375 -3.703125 L 12.234375 0 L 1.21875 0 L 1.21875 -15.984375 L 12.015625 -15.984375 L 12.015625 -12.421875 L 5.171875 -12.421875 L 5.171875 -9.765625 L 11.0625 -9.765625 L 11.0625 -6.453125 L 5.171875 -6.453125 L 5.171875 -3.703125 Z M 12.234375 -3.703125 "/></g></g></g><g fill="#ffffff" fill-opacity="1"><g transform="translate(144.249037, 267.80666)"><g><path d="M 5.171875 -5.15625 L 5.171875 0 L 1.21875 0 L 1.21875 -15.984375 L 7.0625 -15.984375 C 9.53125 -15.984375 11.28125 -15.566406 12.3125 -14.734375 C 13.351562 -13.898438 13.875 -12.515625 13.875 -10.578125 C 13.875 -9.273438 13.597656 -8.207031 13.046875 -7.375 C 12.492188 -6.550781 11.65625 -5.953125 10.53125 -5.578125 L 14.4375 0 L 9.6875 0 L 6.375 -5.15625 Z M 9.875 -10.578125 C 9.875 -11.265625 9.664062 -11.742188 9.25 -12.015625 C 8.84375 -12.285156 8.113281 -12.421875 7.0625 -12.421875 L 5.171875 -12.421875 L 5.171875 -8.34375 L 7.0625 -8.34375 C 8.113281 -8.34375 8.84375 -8.503906 9.25 -8.828125 C 9.664062 -9.160156 9.875 -9.742188 9.875 -10.578125 Z M 9.875 -10.578125 "/></g></g></g><g fill="#ffffff" fill-opacity="1"><g transform="translate(172.854966, 267.80666)"><g><path d="M 11.140625 -15.984375 L 15.21875 -15.984375 L 9.640625 -5.8125 L 9.640625 0 L 5.6875 0 L 5.6875 -5.8125 L -0.046875 -15.984375 L 4.46875 -15.984375 L 7.671875 -9.3125 Z M 11.140625 -15.984375 "/></g></g></g><g fill="#ffffff" fill-opacity="1"><g transform="translate(249.34057, 143.59114)"><g><path d="M 6.8125 0 L 1.21875 0 L 1.21875 -15.984375 L 6.8125 -15.984375 C 8.4375 -15.984375 9.726562 -15.847656 10.6875 -15.578125 C 11.65625 -15.304688 12.425781 -14.875 13 -14.28125 C 13.582031 -13.6875 14.003906 -12.882812 14.265625 -11.875 C 14.523438 -10.863281 14.65625 -9.570312 14.65625 -8 C 14.65625 -5.226562 14.035156 -3.203125 12.796875 -1.921875 C 11.554688 -0.640625 9.5625 0 6.8125 0 Z M 9.9375 -11.40625 C 9.707031 -11.757812 9.363281 -12.015625 8.90625 -12.171875 C 8.445312 -12.335938 7.75 -12.421875 6.8125 -12.421875 L 5.171875 -12.421875 L 5.171875 -3.703125 L 6.8125 -3.703125 C 7.726562 -3.703125 8.414062 -3.773438 8.875 -3.921875 C 9.332031 -4.078125 9.6875 -4.328125 9.9375 -4.671875 C 10.164062 -4.992188 10.328125 -5.421875 10.421875 -5.953125 C 10.523438 -6.484375 10.578125 -7.164062 10.578125 -8 C 10.578125 -8.851562 10.523438 -9.546875 10.421875 -10.078125 C 10.328125 -10.617188 10.164062 -11.0625 9.9375 -11.40625 Z M 9.9375 -11.40625 "/></g></g></g><g fill="#ffffff" fill-opacity="1"><g transform="translate(265.987499, 143.59114)"><g><path d="M 4.078125 0 L -0.078125 0 L 5.84375 -15.984375 L 9.9375 -15.984375 L 15.703125 0 L 11.578125 0 L 10.734375 -2.671875 L 4.921875 -2.671875 Z M 7.796875 -12.0625 C 7.660156 -11.582031 7.507812 -11.070312 7.34375 -10.53125 C 7.1875 -10 6.921875 -9.132812 6.546875 -7.9375 L 5.890625 -5.8125 L 9.734375 -5.8125 L 9.078125 -7.9375 C 8.859375 -8.582031 8.632812 -9.265625 8.40625 -9.984375 C 8.1875 -10.703125 7.984375 -11.394531 7.796875 -12.0625 Z M 7.796875 -12.0625 "/></g></g></g><g fill="#ffffff" fill-opacity="1"><g transform="translate(282.965833, 143.59114)"><g><path d="M 5.484375 0 L -0.046875 -15.984375 L 4.359375 -15.984375 L 6.734375 -8.078125 C 6.890625 -7.554688 7.078125 -6.859375 7.296875 -5.984375 C 7.515625 -5.109375 7.726562 -4.234375 7.9375 -3.359375 C 8.300781 -4.910156 8.5625 -6 8.71875 -6.625 C 8.882812 -7.257812 9.015625 -7.738281 9.109375 -8.0625 L 11.453125 -15.984375 L 15.734375 -15.984375 L 10.21875 0 Z M 5.484375 0 "/></g></g></g><g fill="#ffffff" fill-opacity="1"><g transform="translate(299.944167, 143.59114)"><g><path d="M 5.171875 -15.984375 L 5.171875 0 L 1.21875 0 L 1.21875 -15.984375 Z M 5.171875 -15.984375 "/></g></g></g><g fill="#ffffff" fill-opacity="1"><g transform="translate(307.643215, 143.59114)"><g><path d="M 7.296875 -5.96875 L 4.046875 -6.734375 C 2.753906 -7.035156 1.875 -7.5 1.40625 -8.125 C 0.945312 -8.757812 0.71875 -9.664062 0.71875 -10.84375 C 0.71875 -12.6875 1.203125 -14.046875 2.171875 -14.921875 C 3.148438 -15.804688 4.671875 -16.25 6.734375 -16.25 C 7.578125 -16.25 8.332031 -16.210938 9 -16.140625 C 9.664062 -16.078125 10.28125 -15.957031 10.84375 -15.78125 L 10.84375 -12.234375 C 9.550781 -12.460938 8.660156 -12.59375 8.171875 -12.625 C 7.691406 -12.65625 7.1875 -12.671875 6.65625 -12.671875 C 5.9375 -12.671875 5.414062 -12.550781 5.09375 -12.3125 C 4.769531 -12.070312 4.609375 -11.675781 4.609375 -11.125 C 4.609375 -10.84375 4.660156 -10.628906 4.765625 -10.484375 C 4.867188 -10.347656 5.066406 -10.242188 5.359375 -10.171875 L 8.421875 -9.453125 C 9.296875 -9.253906 9.925781 -9.054688 10.3125 -8.859375 C 10.707031 -8.660156 11.023438 -8.410156 11.265625 -8.109375 C 11.535156 -7.785156 11.734375 -7.367188 11.859375 -6.859375 C 11.992188 -6.347656 12.0625 -5.726562 12.0625 -5 C 12.0625 -3.144531 11.566406 -1.804688 10.578125 -0.984375 C 9.597656 -0.160156 8.070312 0.25 6 0.25 C 4.9375 0.25 3.929688 0.1875 2.984375 0.0625 C 2.035156 -0.0625 1.296875 -0.21875 0.765625 -0.40625 L 0.765625 -4.15625 C 1.441406 -3.9375 2.25 -3.757812 3.1875 -3.625 C 4.125 -3.5 5.0625 -3.4375 6 -3.4375 C 6.738281 -3.4375 7.253906 -3.53125 7.546875 -3.71875 C 7.835938 -3.90625 7.984375 -4.28125 7.984375 -4.84375 C 7.984375 -5.195312 7.9375 -5.453125 7.84375 -5.609375 C 7.75 -5.773438 7.566406 -5.894531 7.296875 -5.96875 Z M 7.296875 -5.96875 "/></g></g></g></svg>