<svg xmlns="http://www.w3.org/2000/svg" xmlns:xlink="http://www.w3.org/1999/xlink" width="500" zoomAndPan="magnify" viewBox="0 0 375 374.999991" height="500" preserveAspectRatio="xMidYMid meet" version="1.0"><defs><g/><clipPath id="ebc9764003"><path d="M 64.011719 59.972656 L 306 59.972656 L 306 210 L 64.011719 210 Z M 64.011719 59.972656 " clip-rule="nonzero"/></clipPath><clipPath id="85d9323485"><path d="M 65 127 L 310.761719 127 L 310.761719 217.472656 L 65 217.472656 Z M 65 127 " clip-rule="nonzero"/></clipPath></defs><g clip-path="url(#ebc9764003)"><path fill="#ffffff" d="M 166.066406 125.878906 C 157.507812 128.511719 148.789062 132.019531 140.066406 136.648438 L 134.867188 125.238281 L 125.589844 145.34375 C 104.789062 159.308594 83.988281 180.054688 64.308594 209.652344 L 134.308594 59.972656 L 135.1875 59.972656 Z M 270.222656 121.570312 C 253.746094 113.828125 242.863281 110.878906 242.863281 102.339844 C 242.863281 94.917969 250.863281 88.777344 261.664062 88.777344 C 269.664062 88.777344 277.984375 92.207031 282.222656 100.746094 L 303.503906 85.902344 C 297.101562 68.589844 280.863281 60.53125 261.265625 60.53125 C 234.863281 60.53125 213.824219 76.886719 213.824219 101.703125 C 213.824219 109.203125 215.746094 115.1875 218.867188 120.132812 C 257.664062 122.925781 289.664062 139.839844 305.183594 149.652344 C 299.34375 137.765625 286.941406 129.46875 270.222656 121.570312 Z M 270.222656 121.570312 " fill-opacity="1" fill-rule="nonzero"/></g><g clip-path="url(#85d9323485)"><path fill="#ffffff" d="M 310.460938 174.707031 C 310.460938 179.414062 309.742188 183.804688 308.460938 187.792969 L 308.460938 187.953125 C 302.460938 206.304688 283.503906 217.394531 258.382812 217.394531 C 234.863281 217.394531 217.425781 207.578125 207.824219 189.867188 L 230.945312 173.667969 C 237.265625 183.804688 246.464844 188.429688 258.863281 188.429688 C 272.382812 188.429688 281.503906 182.925781 281.503906 175.265625 C 281.503906 173.75 281.101562 172.3125 280.464844 170.878906 C 239.90625 149.894531 205.664062 148.777344 178.226562 156.355469 L 206.785156 217.472656 L 174.867188 217.472656 L 165.585938 197.046875 L 154.148438 171.996094 L 151.828125 166.96875 C 116.628906 186.035156 97.988281 216.675781 97.589844 217.394531 L 65.832031 217.394531 C 85.589844 187.710938 106.308594 167.046875 127.109375 153.085938 C 131.910156 149.8125 136.707031 146.941406 141.507812 144.386719 C 150.226562 139.761719 158.949219 136.167969 167.507812 133.617188 C 185.90625 128.03125 203.746094 126.59375 220.304688 127.792969 C 259.105469 130.585938 291.101562 147.5 306.621094 157.3125 C 309.183594 162.5 310.460938 168.164062 310.460938 174.707031 Z M 310.460938 174.707031 " fill-opacity="1" fill-rule="nonzero"/></g><g fill="#ffffff" fill-opacity="1"><g transform="translate(49.746097, 278.61261)"><g><path d="M 2.515625 0.375 C 2.203125 0.28125 1.984375 0.0859375 1.859375 -0.203125 C 1.734375 -0.503906 1.734375 -0.804688 1.859375 -1.109375 L 13.53125 -32.609375 C 13.75 -33.109375 14.125 -33.359375 14.65625 -33.359375 C 15.175781 -33.359375 15.546875 -33.109375 15.765625 -32.609375 L 27.484375 -1.109375 C 27.609375 -0.804688 27.601562 -0.503906 27.46875 -0.203125 C 27.332031 0.0859375 27.109375 0.28125 26.796875 0.375 C 26.515625 0.5 26.222656 0.488281 25.921875 0.34375 C 25.628906 0.207031 25.421875 -0.015625 25.296875 -0.328125 L 14.65625 -28.84375 L 8.1875 -11.578125 L 16.984375 -11.578125 C 17.285156 -11.578125 17.546875 -11.460938 17.765625 -11.234375 C 17.984375 -11.003906 18.09375 -10.71875 18.09375 -10.375 C 18.09375 -10.0625 17.984375 -9.796875 17.765625 -9.578125 C 17.546875 -9.359375 17.285156 -9.25 16.984375 -9.25 L 7.296875 -9.25 L 4 -0.328125 C 3.875 -0.015625 3.671875 0.207031 3.390625 0.34375 C 3.117188 0.488281 2.828125 0.5 2.515625 0.375 Z M 2.515625 0.375 "/></g></g></g><g fill="#ffffff" fill-opacity="1"><g transform="translate(79.04374, 278.61261)"><g><path d="M 14.375 0.609375 C 13.84375 0.609375 13.484375 0.359375 13.296875 -0.140625 L 1.859375 -31.71875 C 1.734375 -32.03125 1.734375 -32.328125 1.859375 -32.609375 C 1.984375 -32.890625 2.203125 -33.09375 2.515625 -33.21875 C 2.828125 -33.332031 3.117188 -33.320312 3.390625 -33.1875 C 3.671875 -33.050781 3.875 -32.828125 4 -32.515625 L 14.375 -3.953125 L 24.796875 -32.515625 C 24.921875 -32.828125 25.117188 -33.050781 25.390625 -33.1875 C 25.671875 -33.320312 25.96875 -33.332031 26.28125 -33.21875 C 26.59375 -33.09375 26.816406 -32.890625 26.953125 -32.609375 C 27.097656 -32.328125 27.109375 -32.03125 26.984375 -31.71875 L 15.484375 -0.140625 C 15.296875 0.359375 14.925781 0.609375 14.375 0.609375 Z M 14.375 0.609375 "/></g></g></g><g fill="#ffffff" fill-opacity="1"><g transform="translate(107.87635, 278.61261)"><g><path d="M 4.65625 0 C 4.34375 0 4.066406 -0.113281 3.828125 -0.34375 C 3.597656 -0.582031 3.484375 -0.851562 3.484375 -1.15625 L 3.484375 -31.390625 C 3.484375 -31.703125 3.597656 -31.972656 3.828125 -32.203125 C 4.066406 -32.441406 4.34375 -32.5625 4.65625 -32.5625 L 20.984375 -32.5625 C 21.316406 -32.5625 21.59375 -32.441406 21.8125 -32.203125 C 22.03125 -31.972656 22.140625 -31.703125 22.140625 -31.390625 C 22.140625 -31.085938 22.03125 -30.816406 21.8125 -30.578125 C 21.59375 -30.347656 21.316406 -30.234375 20.984375 -30.234375 L 5.8125 -30.234375 L 5.8125 -17.71875 L 18.421875 -17.71875 C 18.734375 -17.71875 19.003906 -17.609375 19.234375 -17.390625 C 19.460938 -17.179688 19.578125 -16.90625 19.578125 -16.5625 C 19.578125 -16.25 19.460938 -15.972656 19.234375 -15.734375 C 19.003906 -15.503906 18.734375 -15.390625 18.421875 -15.390625 L 5.8125 -15.390625 L 5.8125 -2.328125 L 20.984375 -2.328125 C 21.316406 -2.328125 21.59375 -2.21875 21.8125 -2 C 22.03125 -1.78125 22.140625 -1.5 22.140625 -1.15625 C 22.140625 -0.851562 22.03125 -0.582031 21.8125 -0.34375 C 21.59375 -0.113281 21.316406 0 20.984375 0 Z M 4.65625 0 "/></g></g></g><g fill="#ffffff" fill-opacity="1"><g transform="translate(132.663096, 278.61261)"><g><path d="M 4.65625 0.65625 C 4.34375 0.65625 4.066406 0.546875 3.828125 0.328125 C 3.597656 0.109375 3.484375 -0.15625 3.484375 -0.46875 L 3.484375 -31.390625 C 3.484375 -31.703125 3.597656 -31.972656 3.828125 -32.203125 C 4.066406 -32.441406 4.34375 -32.5625 4.65625 -32.5625 L 16.09375 -32.5625 C 17.832031 -32.5625 19.40625 -32.132812 20.8125 -31.28125 C 22.226562 -30.425781 23.359375 -29.289062 24.203125 -27.875 C 25.054688 -26.46875 25.484375 -24.914062 25.484375 -23.21875 C 25.484375 -21.757812 25.164062 -20.390625 24.53125 -19.109375 C 23.894531 -17.835938 23.035156 -16.757812 21.953125 -15.875 C 20.867188 -15 19.628906 -14.40625 18.234375 -14.09375 L 25.4375 -1.015625 C 25.59375 -0.710938 25.625 -0.410156 25.53125 -0.109375 C 25.4375 0.179688 25.269531 0.40625 25.03125 0.5625 C 24.71875 0.71875 24.410156 0.75 24.109375 0.65625 C 23.816406 0.5625 23.59375 0.375 23.4375 0.09375 L 15.765625 -13.8125 L 8.984375 -13.8125 C 8.671875 -13.8125 8.394531 -13.925781 8.15625 -14.15625 C 7.925781 -14.394531 7.8125 -14.671875 7.8125 -14.984375 C 7.8125 -15.316406 7.925781 -15.59375 8.15625 -15.8125 C 8.394531 -16.03125 8.671875 -16.140625 8.984375 -16.140625 L 16.09375 -16.140625 C 17.394531 -16.140625 18.578125 -16.457031 19.640625 -17.09375 C 20.710938 -17.726562 21.566406 -18.578125 22.203125 -19.640625 C 22.847656 -20.710938 23.171875 -21.90625 23.171875 -23.21875 C 23.171875 -24.519531 22.847656 -25.695312 22.203125 -26.75 C 21.566406 -27.800781 20.710938 -28.644531 19.640625 -29.28125 C 18.578125 -29.914062 17.394531 -30.234375 16.09375 -30.234375 L 5.8125 -30.234375 L 5.8125 -0.46875 C 5.8125 -0.15625 5.703125 0.109375 5.484375 0.328125 C 5.265625 0.546875 4.988281 0.65625 4.65625 0.65625 Z M 4.65625 0.65625 "/></g></g></g><g fill="#ffffff" fill-opacity="1"><g transform="translate(160.751631, 278.61261)"><g><path d="M 13.859375 0.609375 C 13.546875 0.609375 13.273438 0.5 13.046875 0.28125 C 12.816406 0.0625 12.703125 -0.203125 12.703125 -0.515625 L 12.703125 -13.953125 L 1.765625 -31.4375 C 1.578125 -31.71875 1.519531 -32.015625 1.59375 -32.328125 C 1.675781 -32.640625 1.84375 -32.890625 2.09375 -33.078125 C 2.40625 -33.234375 2.710938 -33.28125 3.015625 -33.21875 C 3.328125 -33.15625 3.5625 -32.984375 3.71875 -32.703125 L 13.859375 -16.515625 L 23.859375 -32.703125 C 24.046875 -32.984375 24.296875 -33.160156 24.609375 -33.234375 C 24.921875 -33.316406 25.210938 -33.265625 25.484375 -33.078125 C 25.734375 -32.890625 25.894531 -32.640625 25.96875 -32.328125 C 26.050781 -32.015625 26 -31.71875 25.8125 -31.4375 L 15.03125 -13.953125 L 15.03125 -0.515625 C 15.03125 -0.203125 14.921875 0.0625 14.703125 0.28125 C 14.484375 0.5 14.203125 0.609375 13.859375 0.609375 Z M 13.859375 0.609375 "/></g></g></g><g fill="#ffffff" fill-opacity="1"><g transform="translate(188.328623, 278.61261)"><g/></g></g><g fill="#ffffff" fill-opacity="1"><g transform="translate(200.884756, 278.61261)"><g><path d="M 4.65625 0 C 4.34375 0 4.066406 -0.113281 3.828125 -0.34375 C 3.597656 -0.582031 3.484375 -0.851562 3.484375 -1.15625 L 3.484375 -31.390625 C 3.484375 -31.703125 3.597656 -31.972656 3.828125 -32.203125 C 4.066406 -32.441406 4.34375 -32.5625 4.65625 -32.5625 L 14.140625 -32.5625 C 16.128906 -32.5625 17.925781 -32.070312 19.53125 -31.09375 C 21.144531 -30.113281 22.441406 -28.816406 23.421875 -27.203125 C 24.398438 -25.597656 24.890625 -23.800781 24.890625 -21.8125 L 24.890625 -10.796875 C 24.890625 -8.804688 24.398438 -7 23.421875 -5.375 C 22.441406 -3.75 21.144531 -2.445312 19.53125 -1.46875 C 17.925781 -0.488281 16.128906 0 14.140625 0 Z M 5.8125 -2.328125 L 14.140625 -2.328125 C 15.691406 -2.328125 17.101562 -2.707031 18.375 -3.46875 C 19.644531 -4.226562 20.660156 -5.25 21.421875 -6.53125 C 22.179688 -7.820312 22.5625 -9.242188 22.5625 -10.796875 L 22.5625 -21.8125 C 22.5625 -23.363281 22.179688 -24.773438 21.421875 -26.046875 C 20.660156 -27.316406 19.644531 -28.332031 18.375 -29.09375 C 17.101562 -29.851562 15.691406 -30.234375 14.140625 -30.234375 L 5.8125 -30.234375 Z M 5.8125 -2.328125 "/></g></g></g><g fill="#ffffff" fill-opacity="1"><g transform="translate(228.368744, 278.61261)"><g><path d="M 2.515625 0.375 C 2.203125 0.28125 1.984375 0.0859375 1.859375 -0.203125 C 1.734375 -0.503906 1.734375 -0.804688 1.859375 -1.109375 L 13.53125 -32.609375 C 13.75 -33.109375 14.125 -33.359375 14.65625 -33.359375 C 15.175781 -33.359375 15.546875 -33.109375 15.765625 -32.609375 L 27.484375 -1.109375 C 27.609375 -0.804688 27.601562 -0.503906 27.46875 -0.203125 C 27.332031 0.0859375 27.109375 0.28125 26.796875 0.375 C 26.515625 0.5 26.222656 0.488281 25.921875 0.34375 C 25.628906 0.207031 25.421875 -0.015625 25.296875 -0.328125 L 14.65625 -28.84375 L 8.1875 -11.578125 L 16.984375 -11.578125 C 17.285156 -11.578125 17.546875 -11.460938 17.765625 -11.234375 C 17.984375 -11.003906 18.09375 -10.71875 18.09375 -10.375 C 18.09375 -10.0625 17.984375 -9.796875 17.765625 -9.578125 C 17.546875 -9.359375 17.285156 -9.25 16.984375 -9.25 L 7.296875 -9.25 L 4 -0.328125 C 3.875 -0.015625 3.671875 0.207031 3.390625 0.34375 C 3.117188 0.488281 2.828125 0.5 2.515625 0.375 Z M 2.515625 0.375 "/></g></g></g><g fill="#ffffff" fill-opacity="1"><g transform="translate(257.666387, 278.61261)"><g><path d="M 14.375 0.609375 C 13.84375 0.609375 13.484375 0.359375 13.296875 -0.140625 L 1.859375 -31.71875 C 1.734375 -32.03125 1.734375 -32.328125 1.859375 -32.609375 C 1.984375 -32.890625 2.203125 -33.09375 2.515625 -33.21875 C 2.828125 -33.332031 3.117188 -33.320312 3.390625 -33.1875 C 3.671875 -33.050781 3.875 -32.828125 4 -32.515625 L 14.375 -3.953125 L 24.796875 -32.515625 C 24.921875 -32.828125 25.117188 -33.050781 25.390625 -33.1875 C 25.671875 -33.320312 25.96875 -33.332031 26.28125 -33.21875 C 26.59375 -33.09375 26.816406 -32.890625 26.953125 -32.609375 C 27.097656 -32.328125 27.109375 -32.03125 26.984375 -31.71875 L 15.484375 -0.140625 C 15.296875 0.359375 14.925781 0.609375 14.375 0.609375 Z M 14.375 0.609375 "/></g></g></g><g fill="#ffffff" fill-opacity="1"><g transform="translate(286.498997, 278.61261)"><g><path d="M 5.53125 0.609375 C 5.21875 0.609375 4.945312 0.5 4.71875 0.28125 C 4.488281 0.0625 4.375 -0.203125 4.375 -0.515625 L 4.375 -32.046875 C 4.375 -32.390625 4.488281 -32.675781 4.71875 -32.90625 C 4.945312 -33.144531 5.21875 -33.265625 5.53125 -33.265625 C 5.875 -33.265625 6.15625 -33.144531 6.375 -32.90625 C 6.59375 -32.675781 6.703125 -32.390625 6.703125 -32.046875 L 6.703125 -0.515625 C 6.703125 -0.203125 6.59375 0.0625 6.375 0.28125 C 6.15625 0.5 5.875 0.609375 5.53125 0.609375 Z M 5.53125 0.609375 "/></g></g></g><g fill="#ffffff" fill-opacity="1"><g transform="translate(297.613505, 278.61261)"><g><path d="M 13.90625 0.609375 C 11.675781 0.609375 9.566406 0.222656 7.578125 -0.546875 C 5.597656 -1.328125 3.957031 -2.414062 2.65625 -3.8125 C 2.03125 -4.34375 2.046875 -4.882812 2.703125 -5.4375 C 3.253906 -5.9375 3.78125 -5.921875 4.28125 -5.390625 C 5.363281 -4.242188 6.757812 -3.34375 8.46875 -2.6875 C 10.175781 -2.039062 11.988281 -1.71875 13.90625 -1.71875 C 16.570312 -1.71875 18.648438 -2.257812 20.140625 -3.34375 C 21.628906 -4.4375 22.375 -5.941406 22.375 -7.859375 C 22.375 -9.878906 21.597656 -11.492188 20.046875 -12.703125 C 18.492188 -13.910156 16.078125 -14.757812 12.796875 -15.25 C 9.597656 -15.78125 7.238281 -16.789062 5.71875 -18.28125 C 4.195312 -19.769531 3.4375 -21.847656 3.4375 -24.515625 C 3.4375 -27.273438 4.320312 -29.421875 6.09375 -30.953125 C 7.863281 -32.492188 10.3125 -33.265625 13.4375 -33.265625 C 15.050781 -33.265625 16.726562 -32.953125 18.46875 -32.328125 C 20.207031 -31.703125 21.816406 -30.847656 23.296875 -29.765625 C 23.890625 -29.273438 23.953125 -28.734375 23.484375 -28.140625 C 23.023438 -27.523438 22.5 -27.445312 21.90625 -27.90625 C 20.632812 -28.863281 19.242188 -29.609375 17.734375 -30.140625 C 16.234375 -30.671875 14.800781 -30.9375 13.4375 -30.9375 C 11.019531 -30.9375 9.132812 -30.367188 7.78125 -29.234375 C 6.4375 -28.097656 5.765625 -26.523438 5.765625 -24.515625 C 5.765625 -22.523438 6.359375 -20.960938 7.546875 -19.828125 C 8.742188 -18.703125 10.613281 -17.9375 13.15625 -17.53125 C 17.132812 -16.945312 20.050781 -15.867188 21.90625 -14.296875 C 23.769531 -12.734375 24.703125 -10.585938 24.703125 -7.859375 C 24.703125 -5.222656 23.753906 -3.148438 21.859375 -1.640625 C 19.972656 -0.140625 17.320312 0.609375 13.90625 0.609375 Z M 13.90625 0.609375 "/></g></g></g><g fill="#ffffff" fill-opacity="1"><g transform="translate(102.56151, 307.451766)"><g><path d="M 6 -15.265625 C 6.71875 -15.265625 7.40625 -15.195312 8.0625 -15.0625 C 8.726562 -14.9375 9.390625 -14.722656 10.046875 -14.421875 L 9.609375 -13.015625 C 8.929688 -13.328125 8.316406 -13.546875 7.765625 -13.671875 C 7.210938 -13.804688 6.648438 -13.875 6.078125 -13.875 C 5.097656 -13.875 4.3125 -13.65625 3.71875 -13.21875 C 3.132812 -12.78125 2.84375 -12.160156 2.84375 -11.359375 C 2.84375 -10.660156 3.066406 -10.109375 3.515625 -9.703125 C 3.960938 -9.296875 4.65625 -8.941406 5.59375 -8.640625 L 7.203125 -8.109375 C 8.429688 -7.691406 9.328125 -7.128906 9.890625 -6.421875 C 10.453125 -5.710938 10.734375 -4.90625 10.734375 -4 C 10.734375 -3.34375 10.609375 -2.753906 10.359375 -2.234375 C 10.117188 -1.710938 9.773438 -1.269531 9.328125 -0.90625 C 8.878906 -0.550781 8.34375 -0.273438 7.71875 -0.078125 C 7.101562 0.117188 6.421875 0.21875 5.671875 0.21875 C 4.898438 0.21875 4.132812 0.144531 3.375 0 C 2.625 -0.144531 1.863281 -0.390625 1.09375 -0.734375 L 1.5625 -2.15625 C 2.226562 -1.820312 2.882812 -1.578125 3.53125 -1.421875 C 4.175781 -1.273438 4.859375 -1.203125 5.578125 -1.203125 C 6.546875 -1.203125 7.351562 -1.414062 8 -1.84375 C 8.644531 -2.269531 8.96875 -2.929688 8.96875 -3.828125 C 8.96875 -4.148438 8.921875 -4.445312 8.828125 -4.71875 C 8.742188 -5 8.585938 -5.257812 8.359375 -5.5 C 8.140625 -5.738281 7.835938 -5.960938 7.453125 -6.171875 C 7.078125 -6.390625 6.59375 -6.597656 6 -6.796875 L 4.453125 -7.296875 C 3.441406 -7.617188 2.625 -8.082031 2 -8.6875 C 1.382812 -9.300781 1.078125 -10.117188 1.078125 -11.140625 C 1.078125 -12.398438 1.5 -13.398438 2.34375 -14.140625 C 3.1875 -14.890625 4.40625 -15.265625 6 -15.265625 Z M 6 -15.265625 "/></g></g></g><g fill="#ffffff" fill-opacity="1"><g transform="translate(114.378876, 307.451766)"><g><path d="M 11.765625 -15.078125 L 11.765625 -13.640625 L 6.8125 -13.640625 L 6.8125 0 L 5.09375 0 L 5.09375 -13.640625 L 0.234375 -13.640625 L 0.234375 -15.078125 Z M 11.765625 -15.078125 "/></g></g></g><g fill="#ffffff" fill-opacity="1"><g transform="translate(126.363694, 307.451766)"><g><path d="M 1.796875 -15.078125 L 3.515625 -15.078125 L 3.515625 -6.046875 C 3.515625 -4.296875 3.835938 -3.050781 4.484375 -2.3125 C 5.128906 -1.570312 6.15625 -1.203125 7.5625 -1.203125 C 8.25 -1.203125 8.835938 -1.3125 9.328125 -1.53125 C 9.828125 -1.75 10.226562 -2.054688 10.53125 -2.453125 C 10.84375 -2.859375 11.070312 -3.335938 11.21875 -3.890625 C 11.375 -4.453125 11.453125 -5.078125 11.453125 -5.765625 L 11.453125 -15.078125 L 13.1875 -15.078125 L 13.1875 -5.84375 C 13.1875 -3.769531 12.691406 -2.238281 11.703125 -1.25 C 10.722656 -0.269531 9.34375 0.21875 7.5625 0.21875 C 5.757812 0.21875 4.347656 -0.269531 3.328125 -1.25 C 2.304688 -2.238281 1.796875 -3.804688 1.796875 -5.953125 Z M 1.796875 -15.078125 "/></g></g></g><g fill="#ffffff" fill-opacity="1"><g transform="translate(141.338728, 307.451766)"><g><path d="M 6.578125 -15.078125 C 7.597656 -15.078125 8.550781 -14.921875 9.4375 -14.609375 C 10.320312 -14.304688 11.082031 -13.859375 11.71875 -13.265625 C 12.351562 -12.671875 12.851562 -11.921875 13.21875 -11.015625 C 13.59375 -10.117188 13.78125 -9.070312 13.78125 -7.875 C 13.78125 -6.414062 13.5625 -5.179688 13.125 -4.171875 C 12.695312 -3.171875 12.113281 -2.359375 11.375 -1.734375 C 10.644531 -1.117188 9.796875 -0.675781 8.828125 -0.40625 C 7.859375 -0.132812 6.828125 0 5.734375 0 L 1.90625 0 L 1.90625 -15.078125 Z M 3.640625 -1.40625 L 5.53125 -1.40625 C 6.320312 -1.40625 7.097656 -1.5 7.859375 -1.6875 C 8.628906 -1.875 9.316406 -2.207031 9.921875 -2.6875 C 10.535156 -3.175781 11.023438 -3.835938 11.390625 -4.671875 C 11.753906 -5.515625 11.9375 -6.582031 11.9375 -7.875 C 11.9375 -8.789062 11.796875 -9.609375 11.515625 -10.328125 C 11.234375 -11.046875 10.84375 -11.648438 10.34375 -12.140625 C 9.84375 -12.640625 9.234375 -13.015625 8.515625 -13.265625 C 7.796875 -13.523438 7.003906 -13.65625 6.140625 -13.65625 L 3.640625 -13.65625 Z M 3.640625 -1.40625 "/></g></g></g><g fill="#ffffff" fill-opacity="1"><g transform="translate(156.218081, 307.451766)"><g><path d="M 3.640625 -15.078125 L 3.640625 0 L 1.90625 0 L 1.90625 -15.078125 Z M 3.640625 -15.078125 "/></g></g></g><g fill="#ffffff" fill-opacity="1"><g transform="translate(161.74402, 307.451766)"><g><path d="M 8.015625 -15.265625 C 8.972656 -15.265625 9.867188 -15.101562 10.703125 -14.78125 C 11.546875 -14.46875 12.269531 -13.988281 12.875 -13.34375 C 13.476562 -12.695312 13.953125 -11.890625 14.296875 -10.921875 C 14.648438 -9.953125 14.828125 -8.820312 14.828125 -7.53125 C 14.828125 -6.269531 14.644531 -5.15625 14.28125 -4.1875 C 13.925781 -3.226562 13.4375 -2.421875 12.8125 -1.765625 C 12.195312 -1.117188 11.46875 -0.625 10.625 -0.28125 C 9.78125 0.0507812 8.878906 0.21875 7.921875 0.21875 C 6.960938 0.21875 6.0625 0.0546875 5.21875 -0.265625 C 4.382812 -0.597656 3.664062 -1.085938 3.0625 -1.734375 C 2.457031 -2.378906 1.976562 -3.179688 1.625 -4.140625 C 1.269531 -5.109375 1.09375 -6.238281 1.09375 -7.53125 C 1.09375 -8.789062 1.269531 -9.898438 1.625 -10.859375 C 1.988281 -11.816406 2.484375 -12.617188 3.109375 -13.265625 C 3.734375 -13.921875 4.460938 -14.414062 5.296875 -14.75 C 6.128906 -15.09375 7.035156 -15.265625 8.015625 -15.265625 Z M 2.9375 -7.53125 C 2.9375 -6.445312 3.070312 -5.503906 3.34375 -4.703125 C 3.613281 -3.910156 3.976562 -3.25 4.4375 -2.71875 C 4.90625 -2.195312 5.445312 -1.804688 6.0625 -1.546875 C 6.675781 -1.296875 7.328125 -1.171875 8.015625 -1.171875 C 8.703125 -1.171875 9.34375 -1.296875 9.9375 -1.546875 C 10.539062 -1.804688 11.066406 -2.195312 11.515625 -2.71875 C 11.972656 -3.25 12.332031 -3.910156 12.59375 -4.703125 C 12.851562 -5.503906 12.984375 -6.445312 12.984375 -7.53125 C 12.984375 -8.632812 12.847656 -9.585938 12.578125 -10.390625 C 12.304688 -11.203125 11.9375 -11.863281 11.46875 -12.375 C 11.007812 -12.882812 10.472656 -13.257812 9.859375 -13.5 C 9.253906 -13.75 8.609375 -13.875 7.921875 -13.875 C 7.234375 -13.875 6.585938 -13.742188 5.984375 -13.484375 C 5.390625 -13.234375 4.863281 -12.84375 4.40625 -12.3125 C 3.957031 -11.789062 3.597656 -11.128906 3.328125 -10.328125 C 3.066406 -9.535156 2.9375 -8.601562 2.9375 -7.53125 Z M 2.9375 -7.53125 "/></g></g></g><g fill="#ffffff" fill-opacity="1"><g transform="translate(177.675919, 307.451766)"><g/></g></g><g fill="#ffffff" fill-opacity="1"><g transform="translate(182.866938, 307.451766)"><g><path d="M 6 -15.265625 C 6.71875 -15.265625 7.40625 -15.195312 8.0625 -15.0625 C 8.726562 -14.9375 9.390625 -14.722656 10.046875 -14.421875 L 9.609375 -13.015625 C 8.929688 -13.328125 8.316406 -13.546875 7.765625 -13.671875 C 7.210938 -13.804688 6.648438 -13.875 6.078125 -13.875 C 5.097656 -13.875 4.3125 -13.65625 3.71875 -13.21875 C 3.132812 -12.78125 2.84375 -12.160156 2.84375 -11.359375 C 2.84375 -10.660156 3.066406 -10.109375 3.515625 -9.703125 C 3.960938 -9.296875 4.65625 -8.941406 5.59375 -8.640625 L 7.203125 -8.109375 C 8.429688 -7.691406 9.328125 -7.128906 9.890625 -6.421875 C 10.453125 -5.710938 10.734375 -4.90625 10.734375 -4 C 10.734375 -3.34375 10.609375 -2.753906 10.359375 -2.234375 C 10.117188 -1.710938 9.773438 -1.269531 9.328125 -0.90625 C 8.878906 -0.550781 8.34375 -0.273438 7.71875 -0.078125 C 7.101562 0.117188 6.421875 0.21875 5.671875 0.21875 C 4.898438 0.21875 4.132812 0.144531 3.375 0 C 2.625 -0.144531 1.863281 -0.390625 1.09375 -0.734375 L 1.5625 -2.15625 C 2.226562 -1.820312 2.882812 -1.578125 3.53125 -1.421875 C 4.175781 -1.273438 4.859375 -1.203125 5.578125 -1.203125 C 6.546875 -1.203125 7.351562 -1.414062 8 -1.84375 C 8.644531 -2.269531 8.96875 -2.929688 8.96875 -3.828125 C 8.96875 -4.148438 8.921875 -4.445312 8.828125 -4.71875 C 8.742188 -5 8.585938 -5.257812 8.359375 -5.5 C 8.140625 -5.738281 7.835938 -5.960938 7.453125 -6.171875 C 7.078125 -6.390625 6.59375 -6.597656 6 -6.796875 L 4.453125 -7.296875 C 3.441406 -7.617188 2.625 -8.082031 2 -8.6875 C 1.382812 -9.300781 1.078125 -10.117188 1.078125 -11.140625 C 1.078125 -12.398438 1.5 -13.398438 2.34375 -14.140625 C 3.1875 -14.890625 4.40625 -15.265625 6 -15.265625 Z M 6 -15.265625 "/></g></g></g><g fill="#ffffff" fill-opacity="1"><g transform="translate(194.684304, 307.451766)"><g><path d="M 1.90625 0 L 1.90625 -15.078125 L 3.640625 -15.078125 L 3.640625 -8.515625 L 11.265625 -8.515625 L 11.265625 -15.078125 L 12.984375 -15.078125 L 12.984375 0 L 11.265625 0 L 11.265625 -7.078125 L 3.640625 -7.078125 L 3.640625 0 Z M 1.90625 0 "/></g></g></g><g fill="#ffffff" fill-opacity="1"><g transform="translate(209.563658, 307.451766)"><g><path d="M 8.015625 -15.265625 C 8.972656 -15.265625 9.867188 -15.101562 10.703125 -14.78125 C 11.546875 -14.46875 12.269531 -13.988281 12.875 -13.34375 C 13.476562 -12.695312 13.953125 -11.890625 14.296875 -10.921875 C 14.648438 -9.953125 14.828125 -8.820312 14.828125 -7.53125 C 14.828125 -6.269531 14.644531 -5.15625 14.28125 -4.1875 C 13.925781 -3.226562 13.4375 -2.421875 12.8125 -1.765625 C 12.195312 -1.117188 11.46875 -0.625 10.625 -0.28125 C 9.78125 0.0507812 8.878906 0.21875 7.921875 0.21875 C 6.960938 0.21875 6.0625 0.0546875 5.21875 -0.265625 C 4.382812 -0.597656 3.664062 -1.085938 3.0625 -1.734375 C 2.457031 -2.378906 1.976562 -3.179688 1.625 -4.140625 C 1.269531 -5.109375 1.09375 -6.238281 1.09375 -7.53125 C 1.09375 -8.789062 1.269531 -9.898438 1.625 -10.859375 C 1.988281 -11.816406 2.484375 -12.617188 3.109375 -13.265625 C 3.734375 -13.921875 4.460938 -14.414062 5.296875 -14.75 C 6.128906 -15.09375 7.035156 -15.265625 8.015625 -15.265625 Z M 2.9375 -7.53125 C 2.9375 -6.445312 3.070312 -5.503906 3.34375 -4.703125 C 3.613281 -3.910156 3.976562 -3.25 4.4375 -2.71875 C 4.90625 -2.195312 5.445312 -1.804688 6.0625 -1.546875 C 6.675781 -1.296875 7.328125 -1.171875 8.015625 -1.171875 C 8.703125 -1.171875 9.34375 -1.296875 9.9375 -1.546875 C 10.539062 -1.804688 11.066406 -2.195312 11.515625 -2.71875 C 11.972656 -3.25 12.332031 -3.910156 12.59375 -4.703125 C 12.851562 -5.503906 12.984375 -6.445312 12.984375 -7.53125 C 12.984375 -8.632812 12.847656 -9.585938 12.578125 -10.390625 C 12.304688 -11.203125 11.9375 -11.863281 11.46875 -12.375 C 11.007812 -12.882812 10.472656 -13.257812 9.859375 -13.5 C 9.253906 -13.75 8.609375 -13.875 7.921875 -13.875 C 7.234375 -13.875 6.585938 -13.742188 5.984375 -13.484375 C 5.390625 -13.234375 4.863281 -12.84375 4.40625 -12.3125 C 3.957031 -11.789062 3.597656 -11.128906 3.328125 -10.328125 C 3.066406 -9.535156 2.9375 -8.601562 2.9375 -7.53125 Z M 2.9375 -7.53125 "/></g></g></g><g fill="#ffffff" fill-opacity="1"><g transform="translate(225.495557, 307.451766)"><g><path d="M 6.578125 -15.078125 C 7.597656 -15.078125 8.550781 -14.921875 9.4375 -14.609375 C 10.320312 -14.304688 11.082031 -13.859375 11.71875 -13.265625 C 12.351562 -12.671875 12.851562 -11.921875 13.21875 -11.015625 C 13.59375 -10.117188 13.78125 -9.070312 13.78125 -7.875 C 13.78125 -6.414062 13.5625 -5.179688 13.125 -4.171875 C 12.695312 -3.171875 12.113281 -2.359375 11.375 -1.734375 C 10.644531 -1.117188 9.796875 -0.675781 8.828125 -0.40625 C 7.859375 -0.132812 6.828125 0 5.734375 0 L 1.90625 0 L 1.90625 -15.078125 Z M 3.640625 -1.40625 L 5.53125 -1.40625 C 6.320312 -1.40625 7.097656 -1.5 7.859375 -1.6875 C 8.628906 -1.875 9.316406 -2.207031 9.921875 -2.6875 C 10.535156 -3.175781 11.023438 -3.835938 11.390625 -4.671875 C 11.753906 -5.515625 11.9375 -6.582031 11.9375 -7.875 C 11.9375 -8.789062 11.796875 -9.609375 11.515625 -10.328125 C 11.234375 -11.046875 10.84375 -11.648438 10.34375 -12.140625 C 9.84375 -12.640625 9.234375 -13.015625 8.515625 -13.265625 C 7.796875 -13.523438 7.003906 -13.65625 6.140625 -13.65625 L 3.640625 -13.65625 Z M 3.640625 -1.40625 "/></g></g></g><g fill="#ffffff" fill-opacity="1"><g transform="translate(240.374911, 307.451766)"><g><path d="M 1.96875 -15.078125 L 4.5 -6.203125 C 4.675781 -5.609375 4.847656 -4.9375 5.015625 -4.1875 C 5.191406 -3.4375 5.347656 -2.726562 5.484375 -2.0625 L 5.53125 -2.0625 C 5.65625 -2.726562 5.8125 -3.429688 6 -4.171875 C 6.195312 -4.910156 6.378906 -5.585938 6.546875 -6.203125 L 9.15625 -15.078125 L 10.734375 -15.078125 L 13.421875 -6.203125 C 13.597656 -5.585938 13.773438 -4.910156 13.953125 -4.171875 C 14.140625 -3.441406 14.3125 -2.738281 14.46875 -2.0625 L 14.515625 -2.0625 C 14.648438 -2.757812 14.800781 -3.472656 14.96875 -4.203125 C 15.144531 -4.941406 15.320312 -5.609375 15.5 -6.203125 L 17.9375 -15.078125 L 19.6875 -15.078125 L 15.359375 0 L 13.609375 0 L 11 -9.046875 C 10.820312 -9.710938 10.640625 -10.363281 10.453125 -11 C 10.265625 -11.644531 10.097656 -12.269531 9.953125 -12.875 L 9.90625 -12.875 C 9.78125 -12.332031 9.644531 -11.796875 9.5 -11.265625 C 9.351562 -10.742188 9.207031 -10.21875 9.0625 -9.6875 L 6.359375 0 L 4.640625 0 L 0.1875 -15.078125 Z M 1.96875 -15.078125 "/></g></g></g><g fill="#ffffff" fill-opacity="1"><g transform="translate(260.253907, 307.451766)"><g><path d="M 1.90625 -15.078125 L 10.765625 -15.078125 L 10.765625 -13.65625 L 3.640625 -13.65625 L 3.640625 -8.5 L 10.140625 -8.5 L 10.140625 -7.078125 L 3.640625 -7.078125 L 3.640625 -1.40625 L 10.84375 -1.40625 L 10.84375 0 L 1.90625 0 Z M 1.90625 -15.078125 "/></g></g></g></svg>