<svg xmlns="http://www.w3.org/2000/svg" xmlns:xlink="http://www.w3.org/1999/xlink" width="240" zoomAndPan="magnify" viewBox="0 0 180 96.749999" height="129" preserveAspectRatio="xMidYMid meet" version="1.0"><defs><g/></defs><g fill="#ffffff" fill-opacity="1"><g transform="translate(11.616297, 55.087683)"><g><path d="M 2.023438 -0.648438 C 2.023438 -0.242188 2.265625 0 2.671875 0 L 6.882812 0 C 7.328125 0 7.53125 -0.242188 7.53125 -0.648438 L 7.53125 -10.851562 L 12.390625 -10.851562 C 16.195312 -10.851562 18.21875 -12.914062 18.21875 -16.679688 L 18.21875 -26.558594 C 18.21875 -30.367188 16.195312 -32.390625 12.390625 -32.390625 L 2.671875 -32.390625 C 2.265625 -32.390625 2.023438 -32.148438 2.023438 -31.742188 Z M 7.53125 -16.195312 L 7.53125 -27.046875 L 11.09375 -27.046875 C 12.1875 -27.046875 12.714844 -26.480469 12.714844 -25.425781 L 12.714844 -17.8125 C 12.714844 -16.800781 12.1875 -16.195312 11.09375 -16.195312 Z M 7.53125 -16.195312 "/></g></g></g><g fill="#ffffff" fill-opacity="1"><g transform="translate(31.85991, 55.087683)"><g><path d="M 18.664062 -26.558594 C 18.664062 -30.367188 16.640625 -32.390625 12.835938 -32.390625 L 2.671875 -32.390625 C 2.265625 -32.390625 2.023438 -32.148438 2.023438 -31.742188 L 2.023438 -0.648438 C 2.023438 -0.242188 2.265625 0 2.671875 0 L 6.882812 0 C 7.289062 0 7.53125 -0.242188 7.53125 -0.648438 L 7.53125 -10.851562 L 10.324219 -10.851562 L 13.035156 -0.566406 C 13.117188 -0.203125 13.320312 0 13.726562 0 L 17.9375 0 C 18.382812 0 18.625 -0.242188 18.503906 -0.730469 L 15.710938 -11.335938 C 17.652344 -12.1875 18.664062 -13.96875 18.664062 -16.679688 Z M 7.53125 -16.195312 L 7.53125 -27.046875 L 11.539062 -27.046875 C 12.589844 -27.046875 13.160156 -26.480469 13.160156 -25.425781 L 13.160156 -17.8125 C 13.160156 -16.761719 12.589844 -16.195312 11.539062 -16.195312 Z M 7.53125 -16.195312 "/></g></g></g><g fill="#ffffff" fill-opacity="1"><g transform="translate(52.548889, 55.087683)"><g><path d="M 2.023438 -5.832031 C 2.023438 -2.023438 4.046875 0 7.855469 0 L 12.390625 0 C 16.195312 0 18.21875 -2.023438 18.21875 -5.832031 L 18.21875 -26.558594 C 18.21875 -30.367188 16.195312 -32.390625 12.390625 -32.390625 L 7.855469 -32.390625 C 4.046875 -32.390625 2.023438 -30.367188 2.023438 -26.558594 Z M 9.027344 -5.222656 C 7.976562 -5.222656 7.410156 -5.75 7.410156 -6.84375 L 7.410156 -25.546875 C 7.410156 -26.601562 7.976562 -27.167969 9.027344 -27.167969 L 11.375 -27.167969 C 12.429688 -27.167969 12.996094 -26.601562 12.996094 -25.546875 L 12.996094 -6.84375 C 12.996094 -5.75 12.429688 -5.222656 11.375 -5.222656 Z M 9.027344 -5.222656 "/></g></g></g><g fill="#ffffff" fill-opacity="1"><g transform="translate(72.7925, 55.087683)"><g><path d="M 21.539062 0 C 22.023438 0 22.1875 -0.242188 22.105469 -0.6875 L 15.386719 -31.824219 C 15.304688 -32.226562 15.0625 -32.390625 14.695312 -32.390625 L 9.070312 -32.390625 C 8.703125 -32.390625 8.460938 -32.226562 8.382812 -31.824219 L 1.660156 -0.6875 C 1.539062 -0.242188 1.742188 0 2.1875 0 L 6.519531 0 C 6.882812 0 7.085938 -0.203125 7.167969 -0.566406 L 8.257812 -6.476562 L 15.464844 -6.476562 L 16.601562 -0.566406 C 16.679688 -0.203125 16.882812 0 17.246094 0 Z M 14.453125 -11.175781 L 9.273438 -11.175781 L 11.863281 -25.304688 Z M 14.453125 -11.175781 "/></g></g></g><g fill="#ffffff" fill-opacity="1"><g transform="translate(96.518019, 55.087683)"><g><path d="M 19.351562 0 C 20 0 20.242188 -0.40625 19.960938 -0.929688 L 12.632812 -17.289062 L 19.515625 -31.417969 C 19.796875 -31.984375 19.554688 -32.390625 18.949219 -32.390625 L 14.695312 -32.390625 C 14.25 -32.390625 13.96875 -32.1875 13.765625 -31.78125 L 7.53125 -19.027344 L 7.53125 -31.582031 C 7.53125 -32.105469 7.246094 -32.390625 6.722656 -32.390625 L 2.835938 -32.390625 C 2.308594 -32.390625 2.023438 -32.105469 2.023438 -31.582031 L 2.023438 -0.808594 C 2.023438 -0.285156 2.308594 0 2.835938 0 L 6.722656 0 C 7.246094 0 7.53125 -0.285156 7.53125 -0.808594 L 7.53125 -9.757812 L 9.027344 -12.632812 L 14.128906 -0.605469 C 14.292969 -0.203125 14.574219 0 15.0625 0 Z M 19.351562 0 "/></g></g></g><g fill="#ffffff" fill-opacity="1"><g transform="translate(118.219173, 55.087683)"><g><path d="M 1.863281 -32.390625 C 1.457031 -32.390625 1.214844 -32.148438 1.214844 -31.742188 L 1.214844 -27.691406 C 1.214844 -27.289062 1.457031 -27.046875 1.863281 -27.046875 L 6.558594 -27.046875 L 6.558594 -0.648438 C 6.558594 -0.203125 6.800781 0 7.207031 0 L 11.417969 0 C 11.863281 0 12.066406 -0.203125 12.066406 -0.648438 L 12.066406 -27.046875 L 16.761719 -27.046875 C 17.207031 -27.046875 17.410156 -27.289062 17.410156 -27.691406 L 17.410156 -31.742188 C 17.410156 -32.148438 17.207031 -32.390625 16.761719 -32.390625 Z M 1.863281 -32.390625 "/></g></g></g><g fill="#ffffff" fill-opacity="1"><g transform="translate(136.843298, 55.087683)"><g><path d="M 2.671875 -32.390625 C 2.226562 -32.390625 2.023438 -32.148438 2.023438 -31.742188 L 2.023438 -0.648438 C 2.023438 -0.242188 2.226562 0 2.671875 0 L 6.882812 0 C 7.289062 0 7.53125 -0.242188 7.53125 -0.648438 L 7.53125 -31.742188 C 7.53125 -32.148438 7.289062 -32.390625 6.882812 -32.390625 Z M 2.671875 -32.390625 "/></g></g></g><g fill="#ffffff" fill-opacity="1"><g transform="translate(146.398286, 55.087683)"><g><path d="M 16.15625 -32.390625 C 15.667969 -32.390625 15.386719 -32.148438 15.265625 -31.660156 L 10.972656 -9.960938 L 6.722656 -31.660156 C 6.597656 -32.148438 6.316406 -32.390625 5.832031 -32.390625 L 1.984375 -32.390625 C 1.375 -32.390625 1.132812 -32.066406 1.253906 -31.5 L 8.058594 -0.730469 C 8.179688 -0.242188 8.460938 0 8.949219 0 L 12.996094 0 C 13.480469 0 13.765625 -0.242188 13.886719 -0.730469 L 20.730469 -31.5 C 20.851562 -32.066406 20.609375 -32.390625 20 -32.390625 Z M 16.15625 -32.390625 "/></g></g></g><g fill="#ffffff" fill-opacity="1"><g transform="translate(3.384484, 78.54395)"><g><path d="M 2.796875 -7.03125 L 2.796875 -0.96875 L 3.390625 -0.96875 L 3.390625 0 L 1.03125 0 L 1.03125 -0.96875 L 1.625 -0.96875 L 1.625 -7.03125 L 1.03125 -7.03125 L 1.03125 -8.015625 L 3.390625 -8.015625 L 3.390625 -7.03125 Z M 2.796875 -7.03125 "/></g></g></g><g fill="#ffffff" fill-opacity="1"><g transform="translate(14.941245, 78.54395)"><g><path d="M 0.671875 0 L 0.671875 -8.015625 L 3.53125 -8.015625 C 4.101562 -8.015625 4.613281 -7.90625 5.0625 -7.6875 C 5.507812 -7.476562 5.878906 -7.191406 6.171875 -6.828125 C 6.472656 -6.472656 6.695312 -6.050781 6.84375 -5.5625 C 7 -5.070312 7.078125 -4.550781 7.078125 -4 C 7.078125 -3.4375 6.992188 -2.910156 6.828125 -2.421875 C 6.671875 -1.941406 6.445312 -1.519531 6.15625 -1.15625 C 5.875 -0.800781 5.535156 -0.519531 5.140625 -0.3125 C 4.753906 -0.101562 4.335938 0 3.890625 0 Z M 3.484375 -1.09375 C 3.910156 -1.09375 4.273438 -1.171875 4.578125 -1.328125 C 4.878906 -1.484375 5.125 -1.691406 5.3125 -1.953125 C 5.507812 -2.222656 5.65625 -2.535156 5.75 -2.890625 C 5.84375 -3.242188 5.890625 -3.613281 5.890625 -4 C 5.890625 -4.382812 5.84375 -4.753906 5.75 -5.109375 C 5.65625 -5.472656 5.507812 -5.789062 5.3125 -6.0625 C 5.125 -6.332031 4.878906 -6.546875 4.578125 -6.703125 C 4.273438 -6.867188 3.910156 -6.953125 3.484375 -6.953125 L 1.859375 -6.953125 L 1.859375 -1.09375 Z M 3.484375 -1.09375 "/></g></g></g><g fill="#ffffff" fill-opacity="1"><g transform="translate(29.719014, 78.54395)"><g><path d="M 7.234375 0 L 5.765625 0 L 3.25 -3.453125 L 1.84375 -3.453125 L 1.84375 0 L 0.65625 0 L 0.65625 -8.015625 L 3.90625 -8.015625 C 4.226562 -8.015625 4.53125 -7.953125 4.8125 -7.828125 C 5.09375 -7.703125 5.335938 -7.535156 5.546875 -7.328125 C 5.753906 -7.128906 5.914062 -6.894531 6.03125 -6.625 C 6.15625 -6.351562 6.21875 -6.054688 6.21875 -5.734375 C 6.21875 -5.472656 6.175781 -5.222656 6.09375 -4.984375 C 6.007812 -4.753906 5.894531 -4.546875 5.75 -4.359375 C 5.601562 -4.171875 5.425781 -4.003906 5.21875 -3.859375 C 5.019531 -3.722656 4.796875 -3.625 4.546875 -3.5625 Z M 3.90625 -4.5625 C 4.0625 -4.5625 4.210938 -4.59375 4.359375 -4.65625 C 4.503906 -4.71875 4.625 -4.800781 4.71875 -4.90625 C 4.820312 -5.019531 4.90625 -5.148438 4.96875 -5.296875 C 5.03125 -5.441406 5.0625 -5.597656 5.0625 -5.765625 C 5.0625 -5.929688 5.03125 -6.082031 4.96875 -6.21875 C 4.90625 -6.363281 4.820312 -6.488281 4.71875 -6.59375 C 4.625 -6.707031 4.503906 -6.796875 4.359375 -6.859375 C 4.210938 -6.921875 4.0625 -6.953125 3.90625 -6.953125 L 1.84375 -6.953125 L 1.84375 -4.546875 Z M 3.90625 -4.5625 "/></g></g></g><g fill="#ffffff" fill-opacity="1"><g transform="translate(44.248242, 78.54395)"><g><path d="M 4.34375 -8.125 C 4.882812 -8.125 5.394531 -8.015625 5.875 -7.796875 C 6.363281 -7.578125 6.785156 -7.28125 7.140625 -6.90625 C 7.503906 -6.53125 7.789062 -6.09375 8 -5.59375 C 8.207031 -5.09375 8.3125 -4.566406 8.3125 -4.015625 C 8.3125 -3.441406 8.207031 -2.90625 8 -2.40625 C 7.789062 -1.914062 7.503906 -1.484375 7.140625 -1.109375 C 6.773438 -0.734375 6.351562 -0.4375 5.875 -0.21875 C 5.394531 0 4.882812 0.109375 4.34375 0.109375 C 3.800781 0.109375 3.285156 0 2.796875 -0.21875 C 2.316406 -0.4375 1.894531 -0.734375 1.53125 -1.109375 C 1.175781 -1.484375 0.894531 -1.914062 0.6875 -2.40625 C 0.488281 -2.90625 0.390625 -3.441406 0.390625 -4.015625 C 0.390625 -4.566406 0.488281 -5.09375 0.6875 -5.59375 C 0.894531 -6.09375 1.179688 -6.53125 1.546875 -6.90625 C 1.910156 -7.28125 2.332031 -7.578125 2.8125 -7.796875 C 3.289062 -8.015625 3.800781 -8.125 4.34375 -8.125 Z M 4.34375 -1.015625 C 4.726562 -1.015625 5.085938 -1.09375 5.421875 -1.25 C 5.765625 -1.40625 6.054688 -1.617188 6.296875 -1.890625 C 6.546875 -2.160156 6.742188 -2.476562 6.890625 -2.84375 C 7.035156 -3.207031 7.109375 -3.597656 7.109375 -4.015625 C 7.109375 -4.421875 7.035156 -4.804688 6.890625 -5.171875 C 6.742188 -5.535156 6.546875 -5.851562 6.296875 -6.125 C 6.054688 -6.394531 5.765625 -6.609375 5.421875 -6.765625 C 5.085938 -6.921875 4.726562 -7 4.34375 -7 C 3.957031 -7 3.597656 -6.921875 3.265625 -6.765625 C 2.929688 -6.609375 2.640625 -6.394531 2.390625 -6.125 C 2.140625 -5.851562 1.941406 -5.535156 1.796875 -5.171875 C 1.648438 -4.804688 1.578125 -4.421875 1.578125 -4.015625 C 1.578125 -3.597656 1.648438 -3.207031 1.796875 -2.84375 C 1.941406 -2.476562 2.140625 -2.160156 2.390625 -1.890625 C 2.640625 -1.617188 2.929688 -1.40625 3.265625 -1.25 C 3.597656 -1.09375 3.957031 -1.015625 4.34375 -1.015625 Z M 4.34375 -1.015625 "/></g></g></g><g fill="#ffffff" fill-opacity="1"><g transform="translate(60.031462, 78.54395)"><g><path d="M 2.21875 -6.953125 L 0.0625 -6.953125 L 0.0625 -8.015625 L 5.578125 -8.015625 L 5.578125 -6.953125 L 3.40625 -6.953125 L 3.40625 0 L 2.21875 0 Z M 2.21875 -6.953125 "/></g></g></g><g fill="#ffffff" fill-opacity="1"><g transform="translate(73.046864, 78.54395)"><g><path d="M 2.21875 -6.953125 L 0.0625 -6.953125 L 0.0625 -8.015625 L 5.578125 -8.015625 L 5.578125 -6.953125 L 3.40625 -6.953125 L 3.40625 0 L 2.21875 0 Z M 2.21875 -6.953125 "/></g></g></g><g fill="#ffffff" fill-opacity="1"><g transform="translate(86.062266, 78.54395)"><g><path d="M 5.96875 -2.25 C 5.96875 -1.90625 5.898438 -1.585938 5.765625 -1.296875 C 5.628906 -1.015625 5.429688 -0.765625 5.171875 -0.546875 C 4.648438 -0.109375 3.984375 0.109375 3.171875 0.109375 C 2.535156 0.109375 1.960938 -0.0195312 1.453125 -0.28125 C 0.941406 -0.539062 0.566406 -0.890625 0.328125 -1.328125 L 1.328125 -1.84375 C 1.484375 -1.570312 1.722656 -1.363281 2.046875 -1.21875 C 2.378906 -1.070312 2.753906 -1 3.171875 -1 C 4.265625 -1 4.8125 -1.414062 4.8125 -2.25 C 4.8125 -2.40625 4.78125 -2.539062 4.71875 -2.65625 C 4.664062 -2.769531 4.582031 -2.875 4.46875 -2.96875 C 4.195312 -3.195312 3.710938 -3.398438 3.015625 -3.578125 C 2.597656 -3.679688 2.238281 -3.796875 1.9375 -3.921875 C 1.644531 -4.054688 1.398438 -4.210938 1.203125 -4.390625 C 0.734375 -4.765625 0.5 -5.269531 0.5 -5.90625 C 0.5 -6.21875 0.5625 -6.507812 0.6875 -6.78125 C 0.8125 -7.0625 0.984375 -7.304688 1.203125 -7.515625 C 1.441406 -7.710938 1.71875 -7.863281 2.03125 -7.96875 C 2.34375 -8.070312 2.6875 -8.125 3.0625 -8.125 C 3.613281 -8.125 4.117188 -8.015625 4.578125 -7.796875 C 5.046875 -7.585938 5.398438 -7.289062 5.640625 -6.90625 L 4.71875 -6.34375 C 4.5 -6.613281 4.242188 -6.800781 3.953125 -6.90625 C 3.671875 -7.019531 3.375 -7.078125 3.0625 -7.078125 C 2.832031 -7.078125 2.625 -7.035156 2.4375 -6.953125 C 2.25 -6.878906 2.09375 -6.789062 1.96875 -6.6875 C 1.863281 -6.59375 1.785156 -6.476562 1.734375 -6.34375 C 1.679688 -6.21875 1.65625 -6.082031 1.65625 -5.9375 C 1.65625 -5.832031 1.671875 -5.726562 1.703125 -5.625 C 1.734375 -5.53125 1.804688 -5.425781 1.921875 -5.3125 C 2.035156 -5.207031 2.203125 -5.101562 2.421875 -5 C 2.640625 -4.894531 2.9375 -4.796875 3.3125 -4.703125 C 3.757812 -4.585938 4.140625 -4.460938 4.453125 -4.328125 C 4.765625 -4.203125 5.023438 -4.046875 5.234375 -3.859375 C 5.722656 -3.453125 5.96875 -2.914062 5.96875 -2.25 Z M 5.96875 -2.25 "/></g></g></g><g fill="#ffffff" fill-opacity="1"><g transform="translate(99.732907, 78.54395)"><g><path d="M 4.40625 -0.984375 C 4.84375 -0.984375 5.242188 -1.085938 5.609375 -1.296875 C 5.984375 -1.503906 6.300781 -1.785156 6.5625 -2.140625 L 7.390625 -1.34375 C 7.023438 -0.914062 6.582031 -0.566406 6.0625 -0.296875 C 5.550781 -0.0234375 5 0.109375 4.40625 0.109375 C 3.863281 0.109375 3.347656 0 2.859375 -0.21875 C 2.378906 -0.4375 1.960938 -0.726562 1.609375 -1.09375 C 1.253906 -1.46875 0.972656 -1.90625 0.765625 -2.40625 C 0.566406 -2.90625 0.46875 -3.4375 0.46875 -4 C 0.46875 -4.5625 0.566406 -5.09375 0.765625 -5.59375 C 0.972656 -6.09375 1.253906 -6.523438 1.609375 -6.890625 C 1.960938 -7.265625 2.378906 -7.5625 2.859375 -7.78125 C 3.347656 -8 3.863281 -8.109375 4.40625 -8.109375 C 4.90625 -8.109375 5.378906 -8.007812 5.828125 -7.8125 C 6.273438 -7.613281 6.675781 -7.351562 7.03125 -7.03125 L 6.34375 -6.140625 C 6.09375 -6.398438 5.800781 -6.613281 5.46875 -6.78125 C 5.132812 -6.945312 4.78125 -7.03125 4.40625 -7.03125 C 4.019531 -7.03125 3.660156 -6.945312 3.328125 -6.78125 C 2.992188 -6.625 2.703125 -6.40625 2.453125 -6.125 C 2.203125 -5.851562 2.003906 -5.535156 1.859375 -5.171875 C 1.710938 -4.804688 1.640625 -4.414062 1.640625 -4 C 1.640625 -3.582031 1.710938 -3.191406 1.859375 -2.828125 C 2.003906 -2.460938 2.203125 -2.140625 2.453125 -1.859375 C 2.703125 -1.585938 2.992188 -1.375 3.328125 -1.21875 C 3.660156 -1.0625 4.019531 -0.984375 4.40625 -0.984375 Z M 4.40625 -0.984375 "/></g></g></g><g fill="#ffffff" fill-opacity="1"><g transform="translate(114.601056, 78.54395)"><g><path d="M 5.53125 -8.015625 L 5.53125 -6.953125 L 1.8125 -6.953125 L 1.8125 -4.765625 L 5.125 -4.765625 L 5.125 -3.671875 L 1.8125 -3.671875 L 1.8125 -1.09375 L 5.53125 -1.09375 L 5.53125 0 L 0.625 0 L 0.625 -8.015625 Z M 5.53125 -8.015625 "/></g></g></g><g fill="#ffffff" fill-opacity="1"><g transform="translate(127.92148, 78.54395)"><g><path d="M 7.53125 -8.015625 L 7.53125 0 L 6.34375 0 L 1.859375 -6.140625 L 1.859375 0 L 0.625 0 L 0.625 -8.015625 L 1.875 -8.015625 L 6.34375 -1.828125 L 6.34375 -8.015625 Z M 7.53125 -8.015625 "/></g></g></g><g fill="#ffffff" fill-opacity="1"><g transform="translate(143.230222, 78.54395)"><g><path d="M 2.21875 -6.953125 L 0.0625 -6.953125 L 0.0625 -8.015625 L 5.578125 -8.015625 L 5.578125 -6.953125 L 3.40625 -6.953125 L 3.40625 0 L 2.21875 0 Z M 2.21875 -6.953125 "/></g></g></g><g fill="#ffffff" fill-opacity="1"><g transform="translate(156.245624, 78.54395)"><g><path d="M 5.53125 -8.015625 L 5.53125 -6.953125 L 1.8125 -6.953125 L 1.8125 -4.765625 L 5.125 -4.765625 L 5.125 -3.671875 L 1.8125 -3.671875 L 1.8125 -1.09375 L 5.53125 -1.09375 L 5.53125 0 L 0.625 0 L 0.625 -8.015625 Z M 5.53125 -8.015625 "/></g></g></g><g fill="#ffffff" fill-opacity="1"><g transform="translate(169.566047, 78.54395)"><g><path d="M 7.234375 0 L 5.765625 0 L 3.25 -3.453125 L 1.84375 -3.453125 L 1.84375 0 L 0.65625 0 L 0.65625 -8.015625 L 3.90625 -8.015625 C 4.226562 -8.015625 4.53125 -7.953125 4.8125 -7.828125 C 5.09375 -7.703125 5.335938 -7.535156 5.546875 -7.328125 C 5.753906 -7.128906 5.914062 -6.894531 6.03125 -6.625 C 6.15625 -6.351562 6.21875 -6.054688 6.21875 -5.734375 C 6.21875 -5.472656 6.175781 -5.222656 6.09375 -4.984375 C 6.007812 -4.753906 5.894531 -4.546875 5.75 -4.359375 C 5.601562 -4.171875 5.425781 -4.003906 5.21875 -3.859375 C 5.019531 -3.722656 4.796875 -3.625 4.546875 -3.5625 Z M 3.90625 -4.5625 C 4.0625 -4.5625 4.210938 -4.59375 4.359375 -4.65625 C 4.503906 -4.71875 4.625 -4.800781 4.71875 -4.90625 C 4.820312 -5.019531 4.90625 -5.148438 4.96875 -5.296875 C 5.03125 -5.441406 5.0625 -5.597656 5.0625 -5.765625 C 5.0625 -5.929688 5.03125 -6.082031 4.96875 -6.21875 C 4.90625 -6.363281 4.820312 -6.488281 4.71875 -6.59375 C 4.625 -6.707031 4.503906 -6.796875 4.359375 -6.859375 C 4.210938 -6.921875 4.0625 -6.953125 3.90625 -6.953125 L 1.84375 -6.953125 L 1.84375 -4.546875 Z M 3.90625 -4.5625 "/></g></g></g></svg>