<svg xmlns="http://www.w3.org/2000/svg" xmlns:xlink="http://www.w3.org/1999/xlink" width="240" zoomAndPan="magnify" viewBox="0 0 180 96.749999" height="129" preserveAspectRatio="xMidYMid meet" version="1.0"><defs><g/></defs><g fill="#ffffff" fill-opacity="1"><g transform="translate(6.791759, 55.044259)"><g><path d="M 18.667969 -26.5625 C 18.667969 -30.367188 16.640625 -32.390625 12.835938 -32.390625 L 2.671875 -32.390625 C 2.265625 -32.390625 2.023438 -32.148438 2.023438 -31.746094 L 2.023438 -0.648438 C 2.023438 -0.242188 2.265625 0 2.671875 0 L 6.882812 0 C 7.289062 0 7.53125 -0.242188 7.53125 -0.648438 L 7.53125 -10.851562 L 10.324219 -10.851562 L 13.039062 -0.566406 C 13.117188 -0.203125 13.320312 0 13.726562 0 L 17.9375 0 C 18.382812 0 18.625 -0.242188 18.503906 -0.730469 L 15.710938 -11.335938 C 17.652344 -12.1875 18.667969 -13.96875 18.667969 -16.683594 Z M 7.53125 -16.195312 L 7.53125 -27.046875 L 11.539062 -27.046875 C 12.59375 -27.046875 13.160156 -26.480469 13.160156 -25.429688 L 13.160156 -17.816406 C 13.160156 -16.761719 12.59375 -16.195312 11.539062 -16.195312 Z M 7.53125 -16.195312 "/></g></g></g><g fill="#ffffff" fill-opacity="1"><g transform="translate(27.482464, 55.044259)"><g><path d="M 18.179688 -31.746094 C 18.179688 -32.148438 18.019531 -32.390625 17.53125 -32.390625 L 2.632812 -32.390625 C 2.265625 -32.390625 2.023438 -32.148438 2.023438 -31.746094 L 2.023438 -0.648438 C 2.023438 -0.242188 2.265625 0 2.632812 0 L 17.53125 0 C 18.019531 0 18.179688 -0.242188 18.179688 -0.648438 L 18.179688 -4.695312 C 18.179688 -5.140625 18.019531 -5.34375 17.53125 -5.34375 L 7.410156 -5.34375 L 7.410156 -13.523438 L 15.144531 -13.523438 C 15.546875 -13.523438 15.792969 -13.765625 15.792969 -14.210938 L 15.792969 -18.222656 C 15.792969 -18.667969 15.546875 -18.910156 15.144531 -18.910156 L 7.410156 -18.910156 L 7.410156 -27.007812 L 17.53125 -27.007812 C 18.019531 -27.007812 18.179688 -27.289062 18.179688 -27.695312 Z M 18.179688 -31.746094 "/></g></g></g><g fill="#ffffff" fill-opacity="1"><g transform="translate(47.687277, 55.044259)"><g><path d="M 18.261719 -26.5625 C 18.261719 -30.367188 16.195312 -32.390625 12.429688 -32.390625 L 7.894531 -32.390625 C 4.089844 -32.390625 2.023438 -30.367188 2.023438 -26.5625 L 2.023438 -5.832031 C 2.023438 -2.023438 4.089844 0 7.894531 0 L 12.429688 0 C 16.195312 0 18.261719 -2.023438 18.261719 -5.832031 L 18.261719 -10.203125 C 18.261719 -10.609375 18.019531 -10.851562 17.613281 -10.851562 L 13.5625 -10.851562 C 13.117188 -10.851562 12.917969 -10.609375 12.917969 -10.203125 L 12.917969 -6.964844 C 12.917969 -5.871094 12.351562 -5.34375 11.296875 -5.34375 L 9.191406 -5.34375 C 8.136719 -5.34375 7.570312 -5.871094 7.570312 -6.964844 L 7.570312 -25.429688 C 7.570312 -26.480469 8.097656 -27.046875 9.191406 -27.046875 L 11.296875 -27.046875 C 12.351562 -27.046875 12.917969 -26.480469 12.917969 -25.429688 L 12.917969 -22.1875 C 12.917969 -21.785156 13.117188 -21.542969 13.5625 -21.542969 L 17.613281 -21.542969 C 18.019531 -21.542969 18.261719 -21.785156 18.261719 -22.1875 Z M 18.261719 -26.5625 "/></g></g></g><g fill="#ffffff" fill-opacity="1"><g transform="translate(67.973077, 55.044259)"><g><path d="M 2.023438 -5.832031 C 2.023438 -2.023438 4.050781 0 7.855469 0 L 12.390625 0 C 16.195312 0 18.222656 -2.023438 18.222656 -5.832031 L 18.222656 -26.5625 C 18.222656 -30.367188 16.195312 -32.390625 12.390625 -32.390625 L 7.855469 -32.390625 C 4.050781 -32.390625 2.023438 -30.367188 2.023438 -26.5625 Z M 9.03125 -5.222656 C 7.976562 -5.222656 7.410156 -5.75 7.410156 -6.84375 L 7.410156 -25.550781 C 7.410156 -26.601562 7.976562 -27.167969 9.03125 -27.167969 L 11.378906 -27.167969 C 12.429688 -27.167969 12.996094 -26.601562 12.996094 -25.550781 L 12.996094 -6.84375 C 12.996094 -5.75 12.429688 -5.222656 11.378906 -5.222656 Z M 9.03125 -5.222656 "/></g></g></g><g fill="#ffffff" fill-opacity="1"><g transform="translate(88.21838, 55.044259)"><g><path d="M 16.15625 -32.390625 C 15.667969 -32.390625 15.386719 -32.148438 15.265625 -31.664062 L 10.972656 -9.960938 L 6.722656 -31.664062 C 6.601562 -32.148438 6.316406 -32.390625 5.832031 -32.390625 L 1.984375 -32.390625 C 1.375 -32.390625 1.132812 -32.070312 1.253906 -31.5 L 8.058594 -0.730469 C 8.179688 -0.242188 8.460938 0 8.949219 0 L 12.996094 0 C 13.484375 0 13.765625 -0.242188 13.886719 -0.730469 L 20.730469 -31.5 C 20.851562 -32.070312 20.609375 -32.390625 20.003906 -32.390625 Z M 16.15625 -32.390625 "/></g></g></g><g fill="#ffffff" fill-opacity="1"><g transform="translate(110.204776, 55.044259)"><g><path d="M 18.179688 -31.746094 C 18.179688 -32.148438 18.019531 -32.390625 17.53125 -32.390625 L 2.632812 -32.390625 C 2.265625 -32.390625 2.023438 -32.148438 2.023438 -31.746094 L 2.023438 -0.648438 C 2.023438 -0.242188 2.265625 0 2.632812 0 L 17.53125 0 C 18.019531 0 18.179688 -0.242188 18.179688 -0.648438 L 18.179688 -4.695312 C 18.179688 -5.140625 18.019531 -5.34375 17.53125 -5.34375 L 7.410156 -5.34375 L 7.410156 -13.523438 L 15.144531 -13.523438 C 15.546875 -13.523438 15.792969 -13.765625 15.792969 -14.210938 L 15.792969 -18.222656 C 15.792969 -18.667969 15.546875 -18.910156 15.144531 -18.910156 L 7.410156 -18.910156 L 7.410156 -27.007812 L 17.53125 -27.007812 C 18.019531 -27.007812 18.179688 -27.289062 18.179688 -27.695312 Z M 18.179688 -31.746094 "/></g></g></g><g fill="#ffffff" fill-opacity="1"><g transform="translate(130.409591, 55.044259)"><g><path d="M 18.667969 -26.5625 C 18.667969 -30.367188 16.640625 -32.390625 12.835938 -32.390625 L 2.671875 -32.390625 C 2.265625 -32.390625 2.023438 -32.148438 2.023438 -31.746094 L 2.023438 -0.648438 C 2.023438 -0.242188 2.265625 0 2.671875 0 L 6.882812 0 C 7.289062 0 7.53125 -0.242188 7.53125 -0.648438 L 7.53125 -10.851562 L 10.324219 -10.851562 L 13.039062 -0.566406 C 13.117188 -0.203125 13.320312 0 13.726562 0 L 17.9375 0 C 18.382812 0 18.625 -0.242188 18.503906 -0.730469 L 15.710938 -11.335938 C 17.652344 -12.1875 18.667969 -13.96875 18.667969 -16.683594 Z M 7.53125 -16.195312 L 7.53125 -27.046875 L 11.539062 -27.046875 C 12.59375 -27.046875 13.160156 -26.480469 13.160156 -25.429688 L 13.160156 -17.816406 C 13.160156 -16.761719 12.59375 -16.195312 11.539062 -16.195312 Z M 7.53125 -16.195312 "/></g></g></g><g fill="#ffffff" fill-opacity="1"><g transform="translate(151.100298, 55.044259)"><g><path d="M 16.519531 -32.390625 C 16.035156 -32.390625 15.75 -32.191406 15.589844 -31.746094 L 11.054688 -20.125 L 6.519531 -31.746094 C 6.355469 -32.191406 6.074219 -32.390625 5.585938 -32.390625 L 1.539062 -32.390625 C 0.929688 -32.390625 0.648438 -32.027344 0.890625 -31.460938 L 8.300781 -13.441406 L 8.300781 -0.808594 C 8.300781 -0.285156 8.585938 0 9.109375 0 L 12.996094 0 C 13.523438 0 13.808594 -0.285156 13.808594 -0.808594 L 13.808594 -13.441406 L 21.21875 -31.460938 C 21.460938 -32.027344 21.175781 -32.390625 20.570312 -32.390625 Z M 16.519531 -32.390625 "/></g></g></g><g fill="#ffffff" fill-opacity="1"><g transform="translate(62.470519, 78.502479)"><g><path d="M 7.234375 0 L 5.765625 0 L 3.25 -3.453125 L 1.84375 -3.453125 L 1.84375 0 L 0.65625 0 L 0.65625 -8.015625 L 3.90625 -8.015625 C 4.226562 -8.015625 4.53125 -7.953125 4.8125 -7.828125 C 5.09375 -7.703125 5.335938 -7.535156 5.546875 -7.328125 C 5.753906 -7.128906 5.914062 -6.894531 6.03125 -6.625 C 6.15625 -6.351562 6.21875 -6.054688 6.21875 -5.734375 C 6.21875 -5.472656 6.175781 -5.222656 6.09375 -4.984375 C 6.007812 -4.753906 5.894531 -4.546875 5.75 -4.359375 C 5.601562 -4.171875 5.425781 -4.003906 5.21875 -3.859375 C 5.019531 -3.722656 4.796875 -3.625 4.546875 -3.5625 Z M 3.90625 -4.5625 C 4.0625 -4.5625 4.210938 -4.59375 4.359375 -4.65625 C 4.503906 -4.71875 4.625 -4.800781 4.71875 -4.90625 C 4.820312 -5.019531 4.90625 -5.148438 4.96875 -5.296875 C 5.03125 -5.441406 5.0625 -5.597656 5.0625 -5.765625 C 5.0625 -5.929688 5.03125 -6.082031 4.96875 -6.21875 C 4.90625 -6.363281 4.820312 -6.488281 4.71875 -6.59375 C 4.625 -6.707031 4.503906 -6.796875 4.359375 -6.859375 C 4.210938 -6.921875 4.0625 -6.953125 3.90625 -6.953125 L 1.84375 -6.953125 L 1.84375 -4.546875 Z M 3.90625 -4.5625 "/></g></g></g><g fill="#ffffff" fill-opacity="1"><g transform="translate(77.00096, 78.502479)"><g><path d="M 4.34375 -8.125 C 4.882812 -8.125 5.394531 -8.015625 5.875 -7.796875 C 6.363281 -7.578125 6.785156 -7.28125 7.140625 -6.90625 C 7.503906 -6.53125 7.789062 -6.09375 8 -5.59375 C 8.207031 -5.09375 8.3125 -4.566406 8.3125 -4.015625 C 8.3125 -3.441406 8.207031 -2.90625 8 -2.40625 C 7.789062 -1.914062 7.503906 -1.484375 7.140625 -1.109375 C 6.773438 -0.734375 6.351562 -0.4375 5.875 -0.21875 C 5.394531 0 4.882812 0.109375 4.34375 0.109375 C 3.800781 0.109375 3.285156 0 2.796875 -0.21875 C 2.316406 -0.4375 1.894531 -0.734375 1.53125 -1.109375 C 1.175781 -1.484375 0.894531 -1.914062 0.6875 -2.40625 C 0.488281 -2.90625 0.390625 -3.441406 0.390625 -4.015625 C 0.390625 -4.566406 0.488281 -5.09375 0.6875 -5.59375 C 0.894531 -6.09375 1.179688 -6.53125 1.546875 -6.90625 C 1.910156 -7.28125 2.332031 -7.578125 2.8125 -7.796875 C 3.289062 -8.015625 3.800781 -8.125 4.34375 -8.125 Z M 4.34375 -1.015625 C 4.726562 -1.015625 5.085938 -1.09375 5.421875 -1.25 C 5.765625 -1.40625 6.054688 -1.617188 6.296875 -1.890625 C 6.546875 -2.160156 6.742188 -2.476562 6.890625 -2.84375 C 7.035156 -3.207031 7.109375 -3.597656 7.109375 -4.015625 C 7.109375 -4.421875 7.035156 -4.804688 6.890625 -5.171875 C 6.742188 -5.535156 6.546875 -5.851562 6.296875 -6.125 C 6.054688 -6.394531 5.765625 -6.609375 5.421875 -6.765625 C 5.085938 -6.921875 4.726562 -7 4.34375 -7 C 3.957031 -7 3.597656 -6.921875 3.265625 -6.765625 C 2.929688 -6.609375 2.640625 -6.394531 2.390625 -6.125 C 2.140625 -5.851562 1.941406 -5.535156 1.796875 -5.171875 C 1.648438 -4.804688 1.578125 -4.421875 1.578125 -4.015625 C 1.578125 -3.597656 1.648438 -3.207031 1.796875 -2.84375 C 1.941406 -2.476562 2.140625 -2.160156 2.390625 -1.890625 C 2.640625 -1.617188 2.929688 -1.40625 3.265625 -1.25 C 3.597656 -1.09375 3.957031 -1.015625 4.34375 -1.015625 Z M 4.34375 -1.015625 "/></g></g></g><g fill="#ffffff" fill-opacity="1"><g transform="translate(92.785496, 78.502479)"><g><path d="M 4.34375 -8.125 C 4.882812 -8.125 5.394531 -8.015625 5.875 -7.796875 C 6.363281 -7.578125 6.785156 -7.28125 7.140625 -6.90625 C 7.503906 -6.53125 7.789062 -6.09375 8 -5.59375 C 8.207031 -5.09375 8.3125 -4.566406 8.3125 -4.015625 C 8.3125 -3.441406 8.207031 -2.90625 8 -2.40625 C 7.789062 -1.914062 7.503906 -1.484375 7.140625 -1.109375 C 6.773438 -0.734375 6.351562 -0.4375 5.875 -0.21875 C 5.394531 0 4.882812 0.109375 4.34375 0.109375 C 3.800781 0.109375 3.285156 0 2.796875 -0.21875 C 2.316406 -0.4375 1.894531 -0.734375 1.53125 -1.109375 C 1.175781 -1.484375 0.894531 -1.914062 0.6875 -2.40625 C 0.488281 -2.90625 0.390625 -3.441406 0.390625 -4.015625 C 0.390625 -4.566406 0.488281 -5.09375 0.6875 -5.59375 C 0.894531 -6.09375 1.179688 -6.53125 1.546875 -6.90625 C 1.910156 -7.28125 2.332031 -7.578125 2.8125 -7.796875 C 3.289062 -8.015625 3.800781 -8.125 4.34375 -8.125 Z M 4.34375 -1.015625 C 4.726562 -1.015625 5.085938 -1.09375 5.421875 -1.25 C 5.765625 -1.40625 6.054688 -1.617188 6.296875 -1.890625 C 6.546875 -2.160156 6.742188 -2.476562 6.890625 -2.84375 C 7.035156 -3.207031 7.109375 -3.597656 7.109375 -4.015625 C 7.109375 -4.421875 7.035156 -4.804688 6.890625 -5.171875 C 6.742188 -5.535156 6.546875 -5.851562 6.296875 -6.125 C 6.054688 -6.394531 5.765625 -6.609375 5.421875 -6.765625 C 5.085938 -6.921875 4.726562 -7 4.34375 -7 C 3.957031 -7 3.597656 -6.921875 3.265625 -6.765625 C 2.929688 -6.609375 2.640625 -6.394531 2.390625 -6.125 C 2.140625 -5.851562 1.941406 -5.535156 1.796875 -5.171875 C 1.648438 -4.804688 1.578125 -4.421875 1.578125 -4.015625 C 1.578125 -3.597656 1.648438 -3.207031 1.796875 -2.84375 C 1.941406 -2.476562 2.140625 -2.160156 2.390625 -1.890625 C 2.640625 -1.617188 2.929688 -1.40625 3.265625 -1.25 C 3.597656 -1.09375 3.957031 -1.015625 4.34375 -1.015625 Z M 4.34375 -1.015625 "/></g></g></g><g fill="#ffffff" fill-opacity="1"><g transform="translate(108.570032, 78.502479)"><g><path d="M 7.453125 -8.015625 L 8.640625 -8.015625 L 8.640625 0 L 7.46875 0 L 7.46875 -6.140625 L 5.125 -2.921875 L 4.21875 -2.921875 L 1.859375 -6.140625 L 1.859375 0 L 0.671875 0 L 0.671875 -8.015625 L 1.859375 -8.015625 L 4.671875 -4.15625 Z M 7.453125 -8.015625 "/></g></g></g></svg>